<?xml version='1.0' encoding='utf-8'?>
<mlt title="Anonymous Submission" LC_NUMERIC="en_IE.UTF-8" producer="main bin" version="6.6.0" root="/home/stephen/Documents">
 <profile frame_rate_num="25" sample_aspect_num="1" display_aspect_den="9" colorspace="709" progressive="1" description="HD 1080p 25 fps" display_aspect_num="16" frame_rate_den="1" width="1920" height="1080" sample_aspect_den="1"/>
 <producer id="1" in="0" out="124">
  <property name="length">125</property>
  <property name="eof">pause</property>
  <property name="resource">/home/stephen/Desktop/Stock video/overlays/title.png</property>
  <property name="ttl">25</property>
  <property name="aspect_ratio">1</property>
  <property name="progressive">1</property>
  <property name="seekable">1</property>
  <property name="meta.media.width">1600</property>
  <property name="meta.media.height">900</property>
  <property name="mlt_service">qimage</property>
  <property name="kdenlive:folderid">1</property>
  <property name="kdenlive:duration">125</property>
  <property name="kdenlive:file_size">22263</property>
  <property name="kdenlive:file_hash">c6e8cdb64932e73e4ec5653654889cae</property>
 </producer>
 <producer id="2" in="0" out="2181">
  <property name="length">2182</property>
  <property name="eof">pause</property>
  <property name="resource">/home/stephen/Desktop/Stock video/overlays/constant.png</property>
  <property name="ttl">25</property>
  <property name="aspect_ratio">1</property>
  <property name="progressive">1</property>
  <property name="seekable">1</property>
  <property name="meta.media.width">1600</property>
  <property name="meta.media.height">900</property>
  <property name="mlt_service">qimage</property>
  <property name="kdenlive:folderid">1</property>
  <property name="kdenlive:duration">125</property>
  <property name="kdenlive:file_size">11214</property>
  <property name="kdenlive:file_hash">3ff132dcf65fa58f084d1b8708cd60ae</property>
 </producer>
 <producer id="3" in="0" out="370">
  <property name="length">371</property>
  <property name="eof">pause</property>
  <property name="resource">/home/stephen/Desktop/Stock video/overlays/s1.png</property>
  <property name="ttl">25</property>
  <property name="aspect_ratio">1</property>
  <property name="progressive">1</property>
  <property name="seekable">1</property>
  <property name="meta.media.width">1600</property>
  <property name="meta.media.height">900</property>
  <property name="mlt_service">qimage</property>
  <property name="kdenlive:folderid">1</property>
  <property name="kdenlive:duration">125</property>
  <property name="kdenlive:file_size">25036</property>
  <property name="kdenlive:file_hash">0ae03e3ced319117ba6d8555cb9299f6</property>
 </producer>
 <producer id="4" in="0" out="200">
  <property name="length">201</property>
  <property name="eof">pause</property>
  <property name="resource">/home/stephen/Desktop/Stock video/overlays/s2.png</property>
  <property name="ttl">25</property>
  <property name="aspect_ratio">1</property>
  <property name="progressive">1</property>
  <property name="seekable">1</property>
  <property name="meta.media.width">1600</property>
  <property name="meta.media.height">900</property>
  <property name="mlt_service">qimage</property>
  <property name="kdenlive:folderid">1</property>
  <property name="kdenlive:duration">125</property>
  <property name="kdenlive:file_size">19018</property>
  <property name="kdenlive:file_hash">984bbfe667def0d9de9ce919d1c54e54</property>
 </producer>
 <producer id="5" in="0" out="227">
  <property name="length">228</property>
  <property name="eof">pause</property>
  <property name="resource">/home/stephen/Desktop/Stock video/overlays/s3.png</property>
  <property name="ttl">25</property>
  <property name="aspect_ratio">1</property>
  <property name="progressive">1</property>
  <property name="seekable">1</property>
  <property name="meta.media.width">1600</property>
  <property name="meta.media.height">900</property>
  <property name="mlt_service">qimage</property>
  <property name="kdenlive:folderid">1</property>
  <property name="kdenlive:duration">125</property>
  <property name="kdenlive:file_size">16922</property>
  <property name="kdenlive:file_hash">5e431a19610225da848ec61364560728</property>
 </producer>
 <producer id="6" in="0" out="218">
  <property name="length">219</property>
  <property name="eof">pause</property>
  <property name="resource">/home/stephen/Desktop/Stock video/overlays/s4.png</property>
  <property name="ttl">25</property>
  <property name="aspect_ratio">1</property>
  <property name="progressive">1</property>
  <property name="seekable">1</property>
  <property name="meta.media.width">1600</property>
  <property name="meta.media.height">900</property>
  <property name="mlt_service">qimage</property>
  <property name="kdenlive:folderid">1</property>
  <property name="kdenlive:duration">125</property>
  <property name="kdenlive:file_size">26024</property>
  <property name="kdenlive:file_hash">dd6f78a5697701f5f1dd2b7bdf2321a9</property>
 </producer>
 <producer id="7" in="0" out="231">
  <property name="length">232</property>
  <property name="eof">pause</property>
  <property name="resource">/home/stephen/Desktop/Stock video/overlays/s5.png</property>
  <property name="ttl">25</property>
  <property name="aspect_ratio">1</property>
  <property name="progressive">1</property>
  <property name="seekable">1</property>
  <property name="meta.media.width">1600</property>
  <property name="meta.media.height">900</property>
  <property name="mlt_service">qimage</property>
  <property name="kdenlive:folderid">1</property>
  <property name="kdenlive:duration">125</property>
  <property name="kdenlive:file_size">21177</property>
  <property name="kdenlive:file_hash">f393d2c29776d184507b9b3354139877</property>
 </producer>
 <producer id="8" in="0" out="223">
  <property name="length">224</property>
  <property name="eof">pause</property>
  <property name="resource">/home/stephen/Desktop/Stock video/overlays/s6.png</property>
  <property name="ttl">25</property>
  <property name="aspect_ratio">1</property>
  <property name="progressive">1</property>
  <property name="seekable">1</property>
  <property name="meta.media.width">1600</property>
  <property name="meta.media.height">900</property>
  <property name="mlt_service">qimage</property>
  <property name="kdenlive:folderid">1</property>
  <property name="kdenlive:duration">125</property>
  <property name="kdenlive:file_size">15922</property>
  <property name="kdenlive:file_hash">ab5366eabf5d288db1784722c63c03bb</property>
 </producer>
 <producer id="9" in="0" out="702">
  <property name="length">703</property>
  <property name="eof">pause</property>
  <property name="resource">/home/stephen/Desktop/Stock video/overlays/s7.png</property>
  <property name="ttl">25</property>
  <property name="aspect_ratio">1</property>
  <property name="progressive">1</property>
  <property name="seekable">1</property>
  <property name="meta.media.width">1600</property>
  <property name="meta.media.height">900</property>
  <property name="mlt_service">qimage</property>
  <property name="kdenlive:folderid">1</property>
  <property name="kdenlive:duration">125</property>
  <property name="kdenlive:file_size">57100</property>
  <property name="kdenlive:file_hash">a59a9722dbd8d143eb34d41b715d7f2b</property>
 </producer>
 <producer id="10" in="0" out="189">
  <property name="length">190</property>
  <property name="eof">pause</property>
  <property name="resource">/home/stephen/Desktop/Stock video/overlays/s8.png</property>
  <property name="ttl">25</property>
  <property name="aspect_ratio">1</property>
  <property name="progressive">1</property>
  <property name="seekable">1</property>
  <property name="meta.media.width">1600</property>
  <property name="meta.media.height">900</property>
  <property name="mlt_service">qimage</property>
  <property name="kdenlive:folderid">1</property>
  <property name="kdenlive:duration">125</property>
  <property name="kdenlive:file_size">506106</property>
  <property name="kdenlive:file_hash">db30140d579177859ce1098040dd971f</property>
 </producer>
 <producer id="11" in="0" out="185">
  <property name="length">186</property>
  <property name="eof">pause</property>
  <property name="resource">/home/stephen/Desktop/Stock video/overlays/s9.png</property>
  <property name="ttl">25</property>
  <property name="aspect_ratio">1</property>
  <property name="progressive">1</property>
  <property name="seekable">1</property>
  <property name="meta.media.width">1600</property>
  <property name="meta.media.height">900</property>
  <property name="mlt_service">qimage</property>
  <property name="kdenlive:folderid">1</property>
  <property name="kdenlive:duration">125</property>
  <property name="kdenlive:file_size">29239</property>
  <property name="kdenlive:file_hash">eb44125bd060c505e05dd52504c34e41</property>
 </producer>
 <producer title="Anonymous Submission" id="12" in="0" out="5335">
  <property name="length">5336</property>
  <property name="eof">pause</property>
  <property name="resource">/home/stephen/Dropbox/Music/Royalty- Free Music/Alialujah_Choir-Tell Me.mp3</property>
  <property name="audio_index">0</property>
  <property name="video_index">-1</property>
  <property name="mute_on_pause">1</property>
  <property name="mlt_service">avformat-novalidate</property>
  <property name="meta.media.nb_streams">2</property>
  <property name="meta.media.0.stream.type">audio</property>
  <property name="meta.media.0.codec.sample_fmt">s16p</property>
  <property name="meta.media.0.codec.sample_rate">48000</property>
  <property name="meta.media.0.codec.channels">2</property>
  <property name="meta.media.0.codec.name">mp3</property>
  <property name="meta.media.0.codec.long_name">MP3 (MPEG audio layer 3)</property>
  <property name="meta.media.0.codec.bit_rate">320000</property>
  <property name="meta.attr.0.stream.encoder.markup">LAME3.97 </property>
  <property name="meta.media.1.stream.type">video</property>
  <property name="meta.media.1.stream.frame_rate">-nan</property>
  <property name="meta.media.1.stream.sample_aspect_ratio">0</property>
  <property name="meta.media.1.codec.width">1500</property>
  <property name="meta.media.1.codec.height">1500</property>
  <property name="meta.media.1.codec.rotate">0</property>
  <property name="meta.media.1.codec.frame_rate">90000</property>
  <property name="meta.media.1.codec.pix_fmt">pal8</property>
  <property name="meta.media.1.codec.sample_aspect_ratio">0</property>
  <property name="meta.media.1.codec.colorspace">709</property>
  <property name="meta.media.1.codec.name">png</property>
  <property name="meta.media.1.codec.long_name">PNG (Portable Network Graphics) image</property>
  <property name="meta.media.1.codec.bit_rate">0</property>
  <property name="meta.attr.1.stream.comment.markup">Other</property>
  <property name="meta.attr.title.markup">Tell Me (Instrumental)</property>
  <property name="meta.attr.artist.markup">Alialujah Choir</property>
  <property name="meta.attr.track.markup">0</property>
  <property name="meta.attr.album.markup">Big Picture Show Instrumentals</property>
  <property name="meta.attr.date.markup">2015-06-17T13:01:18</property>
  <property name="meta.attr.genre.markup">Soundtrack</property>
  <property name="meta.attr.copyright.markup">Attribution-NonCommercial 3.0 International: http://creativecommons.org/licenses/by-nc/3.0/</property>
  <property name="meta.attr.TDAT.markup">2015-06-17 13:01:18</property>
  <property name="meta.attr.comment.markup">URL: http://freemusicarchive.org/music/Alialujah_Choir/Big_Picture_Show_Instrumentals/Tell_Me__Instrumental&#xd;
Comments: http://freemusicarchive.org/&#xd;
Curator: &#xd;
Copyright: Attribution-NonCommercial 3.0 International: http://creativecommons.org/licenses/by-nc/3.0/</property>
  <property name="meta.attr.album_artist.markup">Alialujah Choir</property>
  <property name="seekable">1</property>
  <property name="meta.media.sample_aspect_num">1</property>
  <property name="meta.media.sample_aspect_den">1</property>
  <property name="aspect_ratio">1</property>
  <property name="kdenlive:folderid">3</property>
  <property name="kdenlive:file_size">8638616</property>
  <property name="kdenlive:file_hash">a747f45ffe11180b457b1723b7830496</property>
  <property name="global_feed">1</property>
 </producer>
 <producer title="Anonymous Submission" id="13" in="0" out="5883">
  <property name="length">5884</property>
  <property name="eof">pause</property>
  <property name="resource">/home/stephen/Dropbox/Music/Royalty- Free Music/Life of Riley.mp3</property>
  <property name="audio_index">0</property>
  <property name="video_index">-1</property>
  <property name="mute_on_pause">1</property>
  <property name="mlt_service">avformat-novalidate</property>
  <property name="meta.media.nb_streams">1</property>
  <property name="meta.media.0.stream.type">audio</property>
  <property name="meta.media.0.codec.sample_fmt">s16p</property>
  <property name="meta.media.0.codec.sample_rate">44100</property>
  <property name="meta.media.0.codec.channels">2</property>
  <property name="meta.media.0.codec.name">mp3</property>
  <property name="meta.media.0.codec.long_name">MP3 (MPEG audio layer 3)</property>
  <property name="meta.media.0.codec.bit_rate">256000</property>
  <property name="meta.attr.title.markup">Life of Riley</property>
  <property name="meta.attr.artist.markup">Kevin MacLeod</property>
  <property name="meta.attr.TCM.markup">Kevin MacLeod</property>
  <property name="meta.attr.album.markup">Royalty-Free</property>
  <property name="meta.attr.iTunSMPB.markup"> 00000000 00000210 000009D9 00000000009E5517 00000000 0072D24A 00000000 00000000 00000000 00000000 00000000 00000000</property>
  <property name="meta.attr.genre.markup">Pop</property>
  <property name="meta.attr.iTunPGAP.markup">0</property>
  <property name="meta.attr.encoded_by.markup">iTunes 11.4</property>
  <property name="meta.attr.iTunNORM.markup"> 000000CC 0000016B 0000086C 00000CA6 0003548D 0002DF34 000056AE 00005DE3 00023A34 00037224</property>
  <property name="meta.attr.date.markup">2014</property>
  <property name="seekable">1</property>
  <property name="kdenlive:folderid">3</property>
  <property name="kdenlive:file_size">7533831</property>
  <property name="kdenlive:file_hash">cb12d5cf6589700b375d7a435ee0c110</property>
  <property name="global_feed">1</property>
 </producer>
 <producer title="Anonymous Submission" id="14" in="0" out="4591">
  <property name="length">4592</property>
  <property name="eof">pause</property>
  <property name="resource">/home/stephen/Dropbox/Music/Royalty- Free Music/Kevin McCloud - Celtic Theme.mp3</property>
  <property name="audio_index">0</property>
  <property name="video_index">-1</property>
  <property name="mute_on_pause">1</property>
  <property name="mlt_service">avformat-novalidate</property>
  <property name="meta.media.nb_streams">1</property>
  <property name="meta.media.0.stream.type">audio</property>
  <property name="meta.media.0.codec.sample_fmt">s16p</property>
  <property name="meta.media.0.codec.sample_rate">44100</property>
  <property name="meta.media.0.codec.channels">2</property>
  <property name="meta.media.0.codec.name">mp3</property>
  <property name="meta.media.0.codec.long_name">MP3 (MPEG audio layer 3)</property>
  <property name="meta.media.0.codec.bit_rate">120892</property>
  <property name="meta.attr.0.stream.encoder.markup">Lavc56.26</property>
  <property name="meta.attr.major_brand.markup">isom</property>
  <property name="meta.attr.minor_version.markup">512</property>
  <property name="meta.attr.compatible_brands.markup">isomiso2mp41</property>
  <property name="meta.attr.encoder.markup">Lavf56.25.101</property>
  <property name="seekable">1</property>
  <property name="kdenlive:folderid">3</property>
  <property name="kdenlive:file_size">2775627</property>
  <property name="kdenlive:file_hash">aeb4d46f9beeb872db3826260e6fb154</property>
  <property name="global_feed">1</property>
 </producer>
 <producer title="Anonymous Submission" id="15" in="0" out="1669">
  <property name="length">1670</property>
  <property name="eof">pause</property>
  <property name="resource">/home/stephen/Desktop/Stock video/car-leaves.mp4</property>
  <property name="audio_index">1</property>
  <property name="video_index">0</property>
  <property name="mute_on_pause">1</property>
  <property name="mlt_service">avformat-novalidate</property>
  <property name="meta.media.nb_streams">2</property>
  <property name="meta.media.0.stream.type">video</property>
  <property name="meta.media.0.stream.frame_rate">29.97</property>
  <property name="meta.media.0.stream.sample_aspect_ratio">1</property>
  <property name="meta.media.0.codec.width">1920</property>
  <property name="meta.media.0.codec.height">1080</property>
  <property name="meta.media.0.codec.rotate">0</property>
  <property name="meta.media.0.codec.frame_rate">29.97</property>
  <property name="meta.media.0.codec.pix_fmt">yuv420p</property>
  <property name="meta.media.0.codec.sample_aspect_ratio">1</property>
  <property name="meta.media.0.codec.colorspace">709</property>
  <property name="meta.media.0.codec.color_trc">1</property>
  <property name="meta.media.0.codec.name">h264</property>
  <property name="meta.media.0.codec.long_name">H.264 / AVC / MPEG-4 AVC / MPEG-4 part 10</property>
  <property name="meta.media.0.codec.bit_rate">3419433</property>
  <property name="meta.attr.0.stream.creation_time.markup">2015-03-07T11:13:46.000000Z</property>
  <property name="meta.attr.0.stream.handler_name.markup">L-SMASH Video Handler</property>
  <property name="meta.attr.0.stream.encoder.markup">AVC Coding</property>
  <property name="meta.media.1.stream.type">audio</property>
  <property name="meta.media.1.codec.sample_fmt">fltp</property>
  <property name="meta.media.1.codec.sample_rate">48000</property>
  <property name="meta.media.1.codec.channels">2</property>
  <property name="meta.media.1.codec.name">aac</property>
  <property name="meta.media.1.codec.long_name">AAC (Advanced Audio Coding)</property>
  <property name="meta.media.1.codec.bit_rate">256000</property>
  <property name="meta.attr.1.stream.creation_time.markup">2015-03-07T11:13:46.000000Z</property>
  <property name="meta.attr.1.stream.handler_name.markup">L-SMASH Audio Handler</property>
  <property name="meta.attr.major_brand.markup">mp42</property>
  <property name="meta.attr.minor_version.markup">0</property>
  <property name="meta.attr.compatible_brands.markup">mp42mp41isomavc1</property>
  <property name="meta.attr.creation_time.markup">2015-03-07T11:13:46.000000Z</property>
  <property name="seekable">1</property>
  <property name="meta.media.sample_aspect_num">1</property>
  <property name="meta.media.sample_aspect_den">1</property>
  <property name="aspect_ratio">1</property>
  <property name="kdenlive:folderid">5</property>
  <property name="meta.media.frame_rate_num">30000</property>
  <property name="meta.media.frame_rate_den">1001</property>
  <property name="meta.media.colorspace">709</property>
  <property name="meta.media.color_trc">1</property>
  <property name="meta.media.width">1920</property>
  <property name="meta.media.height">1080</property>
  <property name="meta.media.top_field_first">0</property>
  <property name="meta.media.progressive">1</property>
  <property name="kdenlive:file_size">30716193</property>
  <property name="kdenlive:file_hash">1edc2030f7c4dfc598334f4ecffbd0ac</property>
  <property name="global_feed">1</property>
 </producer>
 <producer id="16" in="0" out="376">
  <property name="length">377</property>
  <property name="eof">pause</property>
  <property name="resource">/home/stephen/Desktop/Stock video/code.mp4</property>
  <property name="audio_index">-1</property>
  <property name="video_index">0</property>
  <property name="mute_on_pause">1</property>
  <property name="mlt_service">avformat-novalidate</property>
  <property name="meta.media.nb_streams">1</property>
  <property name="meta.media.0.stream.type">video</property>
  <property name="meta.media.0.stream.frame_rate">25</property>
  <property name="meta.media.0.stream.sample_aspect_ratio">1</property>
  <property name="meta.media.0.codec.width">1920</property>
  <property name="meta.media.0.codec.height">1080</property>
  <property name="meta.media.0.codec.rotate">0</property>
  <property name="meta.media.0.codec.frame_rate">25</property>
  <property name="meta.media.0.codec.pix_fmt">yuv420p</property>
  <property name="meta.media.0.codec.sample_aspect_ratio">1</property>
  <property name="meta.media.0.codec.colorspace">709</property>
  <property name="meta.media.0.codec.color_trc">1</property>
  <property name="meta.media.0.codec.name">h264</property>
  <property name="meta.media.0.codec.long_name">H.264 / AVC / MPEG-4 AVC / MPEG-4 part 10</property>
  <property name="meta.media.0.codec.bit_rate">2939844</property>
  <property name="meta.attr.0.stream.creation_time.markup">2017-03-30T11:24:41.000000Z</property>
  <property name="meta.attr.0.stream.handler_name.markup">L-SMASH Video Handler</property>
  <property name="meta.attr.0.stream.encoder.markup">AVC Coding</property>
  <property name="meta.attr.major_brand.markup">mp42</property>
  <property name="meta.attr.minor_version.markup">0</property>
  <property name="meta.attr.compatible_brands.markup">mp42mp41isomavc1</property>
  <property name="meta.attr.creation_time.markup">2017-03-30T11:24:41.000000Z</property>
  <property name="seekable">1</property>
  <property name="meta.media.sample_aspect_num">1</property>
  <property name="meta.media.sample_aspect_den">1</property>
  <property name="aspect_ratio">1</property>
  <property name="kdenlive:folderid">5</property>
  <property name="meta.media.frame_rate_num">25</property>
  <property name="meta.media.frame_rate_den">1</property>
  <property name="meta.media.colorspace">709</property>
  <property name="meta.media.color_trc">1</property>
  <property name="meta.media.width">1920</property>
  <property name="meta.media.height">1080</property>
  <property name="meta.media.top_field_first">0</property>
  <property name="meta.media.progressive">1</property>
  <property name="kdenlive:file_size">5547478</property>
  <property name="kdenlive:file_hash">44e4bdba81a7dc0ab675de2089c84a95</property>
 </producer>
 <producer title="Anonymous Submission" id="17" in="0" out="375">
  <property name="length">376</property>
  <property name="eof">pause</property>
  <property name="resource">/home/stephen/Desktop/Stock video/coffee.mp4</property>
  <property name="audio_index">1</property>
  <property name="video_index">0</property>
  <property name="mute_on_pause">1</property>
  <property name="mlt_service">avformat-novalidate</property>
  <property name="meta.media.nb_streams">2</property>
  <property name="meta.media.0.stream.type">video</property>
  <property name="meta.media.0.stream.frame_rate">29.97</property>
  <property name="meta.media.0.stream.sample_aspect_ratio">1</property>
  <property name="meta.media.0.codec.width">1920</property>
  <property name="meta.media.0.codec.height">1080</property>
  <property name="meta.media.0.codec.rotate">0</property>
  <property name="meta.media.0.codec.frame_rate">29.97</property>
  <property name="meta.media.0.codec.pix_fmt">yuv420p</property>
  <property name="meta.media.0.codec.sample_aspect_ratio">1</property>
  <property name="meta.media.0.codec.colorspace">709</property>
  <property name="meta.media.0.codec.name">h264</property>
  <property name="meta.media.0.codec.long_name">H.264 / AVC / MPEG-4 AVC / MPEG-4 part 10</property>
  <property name="meta.media.0.codec.bit_rate">3990069</property>
  <property name="meta.attr.0.stream.creation_time.markup">2015-03-04T10:28:36.000000Z</property>
  <property name="meta.attr.0.stream.handler_name.markup">L-SMASH Video Handler</property>
  <property name="meta.attr.0.stream.encoder.markup">AVC Coding</property>
  <property name="meta.media.1.stream.type">audio</property>
  <property name="meta.media.1.codec.sample_fmt">fltp</property>
  <property name="meta.media.1.codec.sample_rate">48000</property>
  <property name="meta.media.1.codec.channels">2</property>
  <property name="meta.media.1.codec.name">aac</property>
  <property name="meta.media.1.codec.long_name">AAC (Advanced Audio Coding)</property>
  <property name="meta.media.1.codec.bit_rate">256000</property>
  <property name="meta.attr.1.stream.creation_time.markup">2015-03-04T10:28:36.000000Z</property>
  <property name="meta.attr.1.stream.handler_name.markup">L-SMASH Audio Handler</property>
  <property name="meta.attr.major_brand.markup">mp42</property>
  <property name="meta.attr.minor_version.markup">0</property>
  <property name="meta.attr.compatible_brands.markup">mp42mp41isomavc1</property>
  <property name="meta.attr.creation_time.markup">2015-03-04T10:28:36.000000Z</property>
  <property name="seekable">1</property>
  <property name="meta.media.sample_aspect_num">1</property>
  <property name="meta.media.sample_aspect_den">1</property>
  <property name="aspect_ratio">1</property>
  <property name="kdenlive:folderid">5</property>
  <property name="meta.media.frame_rate_num">30000</property>
  <property name="meta.media.frame_rate_den">1001</property>
  <property name="meta.media.colorspace">709</property>
  <property name="meta.media.color_trc">2</property>
  <property name="meta.media.width">1920</property>
  <property name="meta.media.height">1080</property>
  <property name="meta.media.top_field_first">0</property>
  <property name="meta.media.progressive">1</property>
  <property name="kdenlive:file_size">7997426</property>
  <property name="kdenlive:file_hash">ecd1b1dbe6dbb69688e1d12d9bac4ac8</property>
  <property name="global_feed">1</property>
 </producer>
 <producer title="Anonymous Submission" id="18" in="0" out="751">
  <property name="length">752</property>
  <property name="eof">pause</property>
  <property name="resource">/home/stephen/Desktop/Stock video/coffee2.mp4</property>
  <property name="audio_index">1</property>
  <property name="video_index">0</property>
  <property name="mute_on_pause">1</property>
  <property name="mlt_service">avformat-novalidate</property>
  <property name="meta.media.nb_streams">2</property>
  <property name="meta.media.0.stream.type">video</property>
  <property name="meta.media.0.stream.frame_rate">29.97</property>
  <property name="meta.media.0.stream.sample_aspect_ratio">1</property>
  <property name="meta.media.0.codec.width">1920</property>
  <property name="meta.media.0.codec.height">1080</property>
  <property name="meta.media.0.codec.rotate">0</property>
  <property name="meta.media.0.codec.frame_rate">29.97</property>
  <property name="meta.media.0.codec.pix_fmt">yuv420p</property>
  <property name="meta.media.0.codec.sample_aspect_ratio">1</property>
  <property name="meta.media.0.codec.colorspace">709</property>
  <property name="meta.media.0.codec.color_trc">1</property>
  <property name="meta.media.0.codec.name">h264</property>
  <property name="meta.media.0.codec.long_name">H.264 / AVC / MPEG-4 AVC / MPEG-4 part 10</property>
  <property name="meta.media.0.codec.bit_rate">4203829</property>
  <property name="meta.attr.0.stream.creation_time.markup">2015-03-07T12:07:32.000000Z</property>
  <property name="meta.attr.0.stream.handler_name.markup">L-SMASH Video Handler</property>
  <property name="meta.attr.0.stream.encoder.markup">AVC Coding</property>
  <property name="meta.media.1.stream.type">audio</property>
  <property name="meta.media.1.codec.sample_fmt">fltp</property>
  <property name="meta.media.1.codec.sample_rate">48000</property>
  <property name="meta.media.1.codec.channels">2</property>
  <property name="meta.media.1.codec.name">aac</property>
  <property name="meta.media.1.codec.long_name">AAC (Advanced Audio Coding)</property>
  <property name="meta.media.1.codec.bit_rate">235199</property>
  <property name="meta.attr.1.stream.creation_time.markup">2015-03-07T12:07:32.000000Z</property>
  <property name="meta.attr.1.stream.handler_name.markup">L-SMASH Audio Handler</property>
  <property name="meta.attr.major_brand.markup">mp42</property>
  <property name="meta.attr.minor_version.markup">0</property>
  <property name="meta.attr.compatible_brands.markup">mp42mp41isomavc1</property>
  <property name="meta.attr.creation_time.markup">2015-03-07T12:07:32.000000Z</property>
  <property name="seekable">1</property>
  <property name="meta.media.sample_aspect_num">1</property>
  <property name="meta.media.sample_aspect_den">1</property>
  <property name="aspect_ratio">1</property>
  <property name="kdenlive:folderid">5</property>
  <property name="meta.media.frame_rate_num">30000</property>
  <property name="meta.media.frame_rate_den">1001</property>
  <property name="meta.media.colorspace">709</property>
  <property name="meta.media.color_trc">1</property>
  <property name="meta.media.width">1920</property>
  <property name="meta.media.height">1080</property>
  <property name="meta.media.top_field_first">0</property>
  <property name="meta.media.progressive">1</property>
  <property name="kdenlive:file_size">16701159</property>
  <property name="kdenlive:file_hash">d3851acaee301291adb4f8ccd7bbb00a</property>
  <property name="global_feed">1</property>
 </producer>
 <producer title="Anonymous Submission" id="19" in="0" out="753">
  <property name="length">754</property>
  <property name="eof">pause</property>
  <property name="resource">/home/stephen/Desktop/Stock video/leaves.mp4</property>
  <property name="audio_index">-1</property>
  <property name="video_index">0</property>
  <property name="mute_on_pause">1</property>
  <property name="mlt_service">avformat-novalidate</property>
  <property name="meta.media.nb_streams">1</property>
  <property name="meta.media.0.stream.type">video</property>
  <property name="meta.media.0.stream.frame_rate">25</property>
  <property name="meta.media.0.stream.sample_aspect_ratio">1</property>
  <property name="meta.media.0.codec.width">1920</property>
  <property name="meta.media.0.codec.height">1080</property>
  <property name="meta.media.0.codec.rotate">0</property>
  <property name="meta.media.0.codec.frame_rate">25</property>
  <property name="meta.media.0.codec.pix_fmt">yuv420p</property>
  <property name="meta.media.0.codec.sample_aspect_ratio">1</property>
  <property name="meta.media.0.codec.colorspace">709</property>
  <property name="meta.media.0.codec.color_trc">1</property>
  <property name="meta.media.0.codec.name">h264</property>
  <property name="meta.media.0.codec.long_name">H.264 / AVC / MPEG-4 AVC / MPEG-4 part 10</property>
  <property name="meta.media.0.codec.bit_rate">3971943</property>
  <property name="meta.attr.0.stream.creation_time.markup">2016-11-19T09:51:18.000000Z</property>
  <property name="meta.attr.0.stream.handler_name.markup">L-SMASH Video Handler</property>
  <property name="meta.attr.0.stream.encoder.markup">AVC Coding</property>
  <property name="meta.attr.major_brand.markup">mp42</property>
  <property name="meta.attr.minor_version.markup">0</property>
  <property name="meta.attr.compatible_brands.markup">mp42mp41isomavc1</property>
  <property name="meta.attr.creation_time.markup">2016-11-19T09:51:18.000000Z</property>
  <property name="seekable">1</property>
  <property name="meta.media.sample_aspect_num">1</property>
  <property name="meta.media.sample_aspect_den">1</property>
  <property name="aspect_ratio">1</property>
  <property name="kdenlive:folderid">5</property>
  <property name="meta.media.frame_rate_num">25</property>
  <property name="meta.media.frame_rate_den">1</property>
  <property name="meta.media.colorspace">709</property>
  <property name="meta.media.color_trc">1</property>
  <property name="meta.media.width">1920</property>
  <property name="meta.media.height">1080</property>
  <property name="meta.media.top_field_first">0</property>
  <property name="meta.media.progressive">1</property>
  <property name="kdenlive:file_size">14985128</property>
  <property name="kdenlive:file_hash">e7193ccd690d294901515058a3537923</property>
  <property name="global_feed">1</property>
 </producer>
 <producer title="Anonymous Submission" id="20" in="0" out="316">
  <property name="length">317</property>
  <property name="eof">pause</property>
  <property name="resource">/home/stephen/Desktop/Stock video/runner.mp4</property>
  <property name="audio_index">-1</property>
  <property name="video_index">0</property>
  <property name="mute_on_pause">1</property>
  <property name="mlt_service">avformat-novalidate</property>
  <property name="meta.media.nb_streams">1</property>
  <property name="meta.media.0.stream.type">video</property>
  <property name="meta.media.0.stream.frame_rate">25</property>
  <property name="meta.media.0.stream.sample_aspect_ratio">1</property>
  <property name="meta.media.0.codec.width">1920</property>
  <property name="meta.media.0.codec.height">1080</property>
  <property name="meta.media.0.codec.rotate">0</property>
  <property name="meta.media.0.codec.frame_rate">25</property>
  <property name="meta.media.0.codec.pix_fmt">yuv420p</property>
  <property name="meta.media.0.codec.sample_aspect_ratio">1</property>
  <property name="meta.media.0.codec.colorspace">709</property>
  <property name="meta.media.0.codec.color_trc">1</property>
  <property name="meta.media.0.codec.name">h264</property>
  <property name="meta.media.0.codec.long_name">H.264 / AVC / MPEG-4 AVC / MPEG-4 part 10</property>
  <property name="meta.media.0.codec.bit_rate">4492009</property>
  <property name="meta.attr.0.stream.creation_time.markup">2017-03-30T11:24:10.000000Z</property>
  <property name="meta.attr.0.stream.handler_name.markup">L-SMASH Video Handler</property>
  <property name="meta.attr.0.stream.encoder.markup">AVC Coding</property>
  <property name="meta.attr.major_brand.markup">mp42</property>
  <property name="meta.attr.minor_version.markup">0</property>
  <property name="meta.attr.compatible_brands.markup">mp42mp41isomavc1</property>
  <property name="meta.attr.creation_time.markup">2017-03-30T11:24:10.000000Z</property>
  <property name="seekable">1</property>
  <property name="meta.media.sample_aspect_num">1</property>
  <property name="meta.media.sample_aspect_den">1</property>
  <property name="aspect_ratio">1</property>
  <property name="kdenlive:folderid">5</property>
  <property name="meta.media.frame_rate_num">25</property>
  <property name="meta.media.frame_rate_den">1</property>
  <property name="meta.media.colorspace">709</property>
  <property name="meta.media.color_trc">1</property>
  <property name="meta.media.width">1920</property>
  <property name="meta.media.height">1080</property>
  <property name="meta.media.top_field_first">0</property>
  <property name="meta.media.progressive">1</property>
  <property name="kdenlive:file_size">7124950</property>
  <property name="kdenlive:file_hash">2cd19aa9891ca1a2e70abcf939233d4d</property>
  <property name="global_feed">1</property>
 </producer>
 <producer id="21" in="0" out="388">
  <property name="length">389</property>
  <property name="eof">pause</property>
  <property name="resource">/home/stephen/Desktop/Stock video/search.mp4</property>
  <property name="audio_index">-1</property>
  <property name="video_index">0</property>
  <property name="mute_on_pause">1</property>
  <property name="mlt_service">avformat-novalidate</property>
  <property name="meta.media.nb_streams">1</property>
  <property name="meta.media.0.stream.type">video</property>
  <property name="meta.media.0.stream.frame_rate">25</property>
  <property name="meta.media.0.stream.sample_aspect_ratio">1</property>
  <property name="meta.media.0.codec.width">1920</property>
  <property name="meta.media.0.codec.height">1080</property>
  <property name="meta.media.0.codec.rotate">0</property>
  <property name="meta.media.0.codec.frame_rate">25</property>
  <property name="meta.media.0.codec.pix_fmt">yuv420p</property>
  <property name="meta.media.0.codec.sample_aspect_ratio">1</property>
  <property name="meta.media.0.codec.colorspace">709</property>
  <property name="meta.media.0.codec.color_trc">1</property>
  <property name="meta.media.0.codec.name">h264</property>
  <property name="meta.media.0.codec.long_name">H.264 / AVC / MPEG-4 AVC / MPEG-4 part 10</property>
  <property name="meta.media.0.codec.bit_rate">4472778</property>
  <property name="meta.attr.0.stream.creation_time.markup">2017-02-24T08:19:07.000000Z</property>
  <property name="meta.attr.0.stream.handler_name.markup">L-SMASH Video Handler</property>
  <property name="meta.attr.0.stream.encoder.markup">AVC Coding</property>
  <property name="meta.attr.major_brand.markup">mp42</property>
  <property name="meta.attr.minor_version.markup">0</property>
  <property name="meta.attr.compatible_brands.markup">mp42mp41isomavc1</property>
  <property name="meta.attr.creation_time.markup">2017-02-24T08:19:07.000000Z</property>
  <property name="seekable">1</property>
  <property name="meta.media.sample_aspect_num">1</property>
  <property name="meta.media.sample_aspect_den">1</property>
  <property name="aspect_ratio">1</property>
  <property name="kdenlive:folderid">5</property>
  <property name="meta.media.frame_rate_num">25</property>
  <property name="meta.media.frame_rate_den">1</property>
  <property name="meta.media.colorspace">709</property>
  <property name="meta.media.color_trc">1</property>
  <property name="meta.media.width">1920</property>
  <property name="meta.media.height">1080</property>
  <property name="meta.media.top_field_first">0</property>
  <property name="meta.media.progressive">1</property>
  <property name="kdenlive:file_size">8705630</property>
  <property name="kdenlive:file_hash">9ea92b825e8b4f3a91142b0559586b74</property>
 </producer>
 <producer title="Anonymous Submission" id="22" in="0" out="283">
  <property name="length">284</property>
  <property name="eof">pause</property>
  <property name="resource">/home/stephen/Desktop/Stock video/DublinQuays.mp4</property>
  <property name="audio_index">1</property>
  <property name="video_index">0</property>
  <property name="mute_on_pause">1</property>
  <property name="mlt_service">avformat-novalidate</property>
  <property name="meta.media.nb_streams">2</property>
  <property name="meta.media.0.stream.type">video</property>
  <property name="meta.media.0.stream.frame_rate">25</property>
  <property name="meta.media.0.stream.sample_aspect_ratio">1</property>
  <property name="meta.media.0.codec.width">1920</property>
  <property name="meta.media.0.codec.height">1080</property>
  <property name="meta.media.0.codec.rotate">0</property>
  <property name="meta.media.0.codec.frame_rate">25</property>
  <property name="meta.media.0.codec.pix_fmt">yuv420p</property>
  <property name="meta.media.0.codec.sample_aspect_ratio">1</property>
  <property name="meta.media.0.codec.colorspace">709</property>
  <property name="meta.media.0.codec.color_trc">1</property>
  <property name="meta.media.0.codec.name">h264</property>
  <property name="meta.media.0.codec.long_name">H.264 / AVC / MPEG-4 AVC / MPEG-4 part 10</property>
  <property name="meta.media.0.codec.bit_rate">4505828</property>
  <property name="meta.attr.0.stream.creation_time.markup">2017-03-12T04:38:40.000000Z</property>
  <property name="meta.attr.0.stream.handler_name.markup">L-SMASH Video Handler</property>
  <property name="meta.attr.0.stream.encoder.markup">AVC Coding</property>
  <property name="meta.media.1.stream.type">audio</property>
  <property name="meta.media.1.codec.sample_fmt">fltp</property>
  <property name="meta.media.1.codec.sample_rate">48000</property>
  <property name="meta.media.1.codec.channels">2</property>
  <property name="meta.media.1.codec.name">aac</property>
  <property name="meta.media.1.codec.long_name">AAC (Advanced Audio Coding)</property>
  <property name="meta.media.1.codec.bit_rate">255999</property>
  <property name="meta.attr.1.stream.creation_time.markup">2017-03-12T04:38:40.000000Z</property>
  <property name="meta.attr.1.stream.handler_name.markup">L-SMASH Audio Handler</property>
  <property name="meta.attr.major_brand.markup">mp42</property>
  <property name="meta.attr.minor_version.markup">0</property>
  <property name="meta.attr.compatible_brands.markup">mp42mp41isomavc1</property>
  <property name="meta.attr.creation_time.markup">2017-03-12T04:38:40.000000Z</property>
  <property name="seekable">1</property>
  <property name="meta.media.sample_aspect_num">1</property>
  <property name="meta.media.sample_aspect_den">1</property>
  <property name="aspect_ratio">1</property>
  <property name="kdenlive:folderid">5</property>
  <property name="meta.media.frame_rate_num">25</property>
  <property name="meta.media.frame_rate_den">1</property>
  <property name="meta.media.colorspace">709</property>
  <property name="meta.media.color_trc">1</property>
  <property name="meta.media.width">1920</property>
  <property name="meta.media.height">1080</property>
  <property name="meta.media.top_field_first">0</property>
  <property name="meta.media.progressive">1</property>
  <property name="kdenlive:file_size">6769398</property>
  <property name="kdenlive:file_hash">48e21edda9ec62e12e04ee70ee52d36b</property>
  <property name="global_feed">1</property>
 </producer>
 <producer title="Anonymous Submission" id="23" in="0" out="408">
  <property name="length">409</property>
  <property name="eof">pause</property>
  <property name="resource">/home/stephen/Desktop/Stock video/hapennybridge.mp4</property>
  <property name="audio_index">1</property>
  <property name="video_index">0</property>
  <property name="mute_on_pause">1</property>
  <property name="mlt_service">avformat-novalidate</property>
  <property name="meta.media.nb_streams">2</property>
  <property name="meta.media.0.stream.type">video</property>
  <property name="meta.media.0.stream.frame_rate">25</property>
  <property name="meta.media.0.stream.sample_aspect_ratio">1</property>
  <property name="meta.media.0.codec.width">1920</property>
  <property name="meta.media.0.codec.height">1080</property>
  <property name="meta.media.0.codec.rotate">0</property>
  <property name="meta.media.0.codec.frame_rate">25</property>
  <property name="meta.media.0.codec.pix_fmt">yuv420p</property>
  <property name="meta.media.0.codec.sample_aspect_ratio">1</property>
  <property name="meta.media.0.codec.colorspace">709</property>
  <property name="meta.media.0.codec.color_trc">1</property>
  <property name="meta.media.0.codec.name">h264</property>
  <property name="meta.media.0.codec.long_name">H.264 / AVC / MPEG-4 AVC / MPEG-4 part 10</property>
  <property name="meta.media.0.codec.bit_rate">4513705</property>
  <property name="meta.attr.0.stream.creation_time.markup">2017-03-12T05:12:44.000000Z</property>
  <property name="meta.attr.0.stream.handler_name.markup">L-SMASH Video Handler</property>
  <property name="meta.attr.0.stream.encoder.markup">AVC Coding</property>
  <property name="meta.media.1.stream.type">audio</property>
  <property name="meta.media.1.codec.sample_fmt">fltp</property>
  <property name="meta.media.1.codec.sample_rate">48000</property>
  <property name="meta.media.1.codec.channels">2</property>
  <property name="meta.media.1.codec.name">aac</property>
  <property name="meta.media.1.codec.long_name">AAC (Advanced Audio Coding)</property>
  <property name="meta.media.1.codec.bit_rate">255999</property>
  <property name="meta.attr.1.stream.creation_time.markup">2017-03-12T05:12:44.000000Z</property>
  <property name="meta.attr.1.stream.handler_name.markup">L-SMASH Audio Handler</property>
  <property name="meta.attr.major_brand.markup">mp42</property>
  <property name="meta.attr.minor_version.markup">0</property>
  <property name="meta.attr.compatible_brands.markup">mp42mp41isomavc1</property>
  <property name="meta.attr.creation_time.markup">2017-03-12T05:12:44.000000Z</property>
  <property name="seekable">1</property>
  <property name="meta.media.sample_aspect_num">1</property>
  <property name="meta.media.sample_aspect_den">1</property>
  <property name="aspect_ratio">1</property>
  <property name="kdenlive:folderid">5</property>
  <property name="meta.media.frame_rate_num">25</property>
  <property name="meta.media.frame_rate_den">1</property>
  <property name="meta.media.colorspace">709</property>
  <property name="meta.media.color_trc">1</property>
  <property name="meta.media.width">1920</property>
  <property name="meta.media.height">1080</property>
  <property name="meta.media.top_field_first">0</property>
  <property name="meta.media.progressive">1</property>
  <property name="kdenlive:file_size">9763982</property>
  <property name="kdenlive:file_hash">b38f857f6fdb6e95d8eb8ca53b9573ed</property>
  <property name="global_feed">1</property>
 </producer>
 <producer id="24" in="0" out="339">
  <property name="length">340</property>
  <property name="eof">pause</property>
  <property name="resource">/home/stephen/Desktop/Stock video/internet blur.mp4</property>
  <property name="audio_index">-1</property>
  <property name="video_index">0</property>
  <property name="mute_on_pause">1</property>
  <property name="mlt_service">avformat-novalidate</property>
  <property name="meta.media.nb_streams">1</property>
  <property name="meta.media.0.stream.type">video</property>
  <property name="meta.media.0.stream.frame_rate">25</property>
  <property name="meta.media.0.stream.sample_aspect_ratio">1</property>
  <property name="meta.media.0.codec.width">1920</property>
  <property name="meta.media.0.codec.height">1080</property>
  <property name="meta.media.0.codec.rotate">0</property>
  <property name="meta.media.0.codec.frame_rate">25</property>
  <property name="meta.media.0.codec.pix_fmt">yuv420p</property>
  <property name="meta.media.0.codec.sample_aspect_ratio">1</property>
  <property name="meta.media.0.codec.colorspace">709</property>
  <property name="meta.media.0.codec.color_trc">1</property>
  <property name="meta.media.0.codec.name">h264</property>
  <property name="meta.media.0.codec.long_name">H.264 / AVC / MPEG-4 AVC / MPEG-4 part 10</property>
  <property name="meta.media.0.codec.bit_rate">2415108</property>
  <property name="meta.attr.0.stream.creation_time.markup">2017-03-30T10:13:31.000000Z</property>
  <property name="meta.attr.0.stream.handler_name.markup">L-SMASH Video Handler</property>
  <property name="meta.attr.0.stream.encoder.markup">AVC Coding</property>
  <property name="meta.attr.major_brand.markup">mp42</property>
  <property name="meta.attr.minor_version.markup">0</property>
  <property name="meta.attr.compatible_brands.markup">mp42mp41isomavc1</property>
  <property name="meta.attr.creation_time.markup">2017-03-30T10:13:31.000000Z</property>
  <property name="seekable">1</property>
  <property name="meta.media.sample_aspect_num">1</property>
  <property name="meta.media.sample_aspect_den">1</property>
  <property name="aspect_ratio">1</property>
  <property name="kdenlive:folderid">5</property>
  <property name="meta.media.frame_rate_num">25</property>
  <property name="meta.media.frame_rate_den">1</property>
  <property name="meta.media.colorspace">709</property>
  <property name="meta.media.color_trc">1</property>
  <property name="meta.media.width">1920</property>
  <property name="meta.media.height">1080</property>
  <property name="meta.media.top_field_first">0</property>
  <property name="meta.media.progressive">1</property>
  <property name="kdenlive:file_size">4110174</property>
  <property name="kdenlive:file_hash">48879a790ef4fdf637083f3f2f28cc0f</property>
 </producer>
 <producer title="Anonymous Submission" id="25" in="0" out="499">
  <property name="length">500</property>
  <property name="eof">pause</property>
  <property name="resource">/home/stephen/Desktop/Stock video/morewalking.mp4</property>
  <property name="audio_index">1</property>
  <property name="video_index">0</property>
  <property name="mute_on_pause">1</property>
  <property name="mlt_service">avformat-novalidate</property>
  <property name="meta.media.nb_streams">2</property>
  <property name="meta.media.0.stream.type">video</property>
  <property name="meta.media.0.stream.frame_rate">29.97</property>
  <property name="meta.media.0.stream.sample_aspect_ratio">1</property>
  <property name="meta.media.0.codec.width">1920</property>
  <property name="meta.media.0.codec.height">1080</property>
  <property name="meta.media.0.codec.rotate">0</property>
  <property name="meta.media.0.codec.frame_rate">29.97</property>
  <property name="meta.media.0.codec.pix_fmt">yuv420p</property>
  <property name="meta.media.0.codec.sample_aspect_ratio">1</property>
  <property name="meta.media.0.codec.colorspace">709</property>
  <property name="meta.media.0.codec.color_trc">1</property>
  <property name="meta.media.0.codec.name">h264</property>
  <property name="meta.media.0.codec.long_name">H.264 / AVC / MPEG-4 AVC / MPEG-4 part 10</property>
  <property name="meta.media.0.codec.bit_rate">1882995</property>
  <property name="meta.attr.0.stream.creation_time.markup">2017-04-02T14:05:53.000000Z</property>
  <property name="meta.attr.0.stream.handler_name.markup">L-SMASH Video Handler</property>
  <property name="meta.attr.0.stream.encoder.markup">AVC Coding</property>
  <property name="meta.media.1.stream.type">audio</property>
  <property name="meta.media.1.codec.sample_fmt">fltp</property>
  <property name="meta.media.1.codec.sample_rate">48000</property>
  <property name="meta.media.1.codec.channels">2</property>
  <property name="meta.media.1.codec.name">aac</property>
  <property name="meta.media.1.codec.long_name">AAC (Advanced Audio Coding)</property>
  <property name="meta.media.1.codec.bit_rate">256000</property>
  <property name="meta.attr.1.stream.creation_time.markup">2017-04-02T14:05:53.000000Z</property>
  <property name="meta.attr.1.stream.handler_name.markup">L-SMASH Audio Handler</property>
  <property name="meta.attr.major_brand.markup">mp42</property>
  <property name="meta.attr.minor_version.markup">0</property>
  <property name="meta.attr.compatible_brands.markup">mp42mp41isomavc1</property>
  <property name="meta.attr.creation_time.markup">2017-04-02T14:05:53.000000Z</property>
  <property name="seekable">1</property>
  <property name="meta.media.sample_aspect_num">1</property>
  <property name="meta.media.sample_aspect_den">1</property>
  <property name="aspect_ratio">1</property>
  <property name="kdenlive:folderid">5</property>
  <property name="meta.media.frame_rate_num">30000</property>
  <property name="meta.media.frame_rate_den">1001</property>
  <property name="meta.media.colorspace">709</property>
  <property name="meta.media.color_trc">1</property>
  <property name="meta.media.width">1920</property>
  <property name="meta.media.height">1080</property>
  <property name="meta.media.top_field_first">0</property>
  <property name="meta.media.progressive">1</property>
  <property name="kdenlive:file_size">5357236</property>
  <property name="kdenlive:file_hash">622f61191b911e3460986d7057af03cf</property>
  <property name="global_feed">1</property>
 </producer>
 <producer id="26" in="0" out="359">
  <property name="length">360</property>
  <property name="eof">pause</property>
  <property name="resource">/home/stephen/Desktop/Stock video/phonescroll.mp4</property>
  <property name="audio_index">1</property>
  <property name="video_index">0</property>
  <property name="mute_on_pause">1</property>
  <property name="mlt_service">avformat-novalidate</property>
  <property name="meta.media.nb_streams">2</property>
  <property name="meta.media.0.stream.type">video</property>
  <property name="meta.media.0.stream.frame_rate">23.976</property>
  <property name="meta.media.0.stream.sample_aspect_ratio">1</property>
  <property name="meta.media.0.codec.width">1920</property>
  <property name="meta.media.0.codec.height">1080</property>
  <property name="meta.media.0.codec.rotate">0</property>
  <property name="meta.media.0.codec.frame_rate">23.976</property>
  <property name="meta.media.0.codec.pix_fmt">yuv420p</property>
  <property name="meta.media.0.codec.sample_aspect_ratio">1</property>
  <property name="meta.media.0.codec.colorspace">709</property>
  <property name="meta.media.0.codec.color_trc">1</property>
  <property name="meta.media.0.codec.name">h264</property>
  <property name="meta.media.0.codec.long_name">H.264 / AVC / MPEG-4 AVC / MPEG-4 part 10</property>
  <property name="meta.media.0.codec.bit_rate">4005727</property>
  <property name="meta.attr.0.stream.creation_time.markup">2016-08-15T19:26:09.000000Z</property>
  <property name="meta.attr.0.stream.handler_name.markup">L-SMASH Video Handler</property>
  <property name="meta.attr.0.stream.encoder.markup">AVC Coding</property>
  <property name="meta.media.1.stream.type">audio</property>
  <property name="meta.media.1.codec.sample_fmt">fltp</property>
  <property name="meta.media.1.codec.sample_rate">48000</property>
  <property name="meta.media.1.codec.channels">2</property>
  <property name="meta.media.1.codec.name">aac</property>
  <property name="meta.media.1.codec.long_name">AAC (Advanced Audio Coding)</property>
  <property name="meta.media.1.codec.bit_rate">256000</property>
  <property name="meta.attr.1.stream.creation_time.markup">2016-08-15T19:26:09.000000Z</property>
  <property name="meta.attr.1.stream.handler_name.markup">L-SMASH Audio Handler</property>
  <property name="meta.attr.major_brand.markup">mp42</property>
  <property name="meta.attr.minor_version.markup">0</property>
  <property name="meta.attr.compatible_brands.markup">mp42mp41isomavc1</property>
  <property name="meta.attr.creation_time.markup">2016-08-15T19:26:09.000000Z</property>
  <property name="seekable">1</property>
  <property name="meta.media.sample_aspect_num">1</property>
  <property name="meta.media.sample_aspect_den">1</property>
  <property name="aspect_ratio">1</property>
  <property name="kdenlive:folderid">5</property>
  <property name="meta.media.frame_rate_num">24000</property>
  <property name="meta.media.frame_rate_den">1001</property>
  <property name="meta.media.colorspace">709</property>
  <property name="meta.media.color_trc">1</property>
  <property name="meta.media.width">1920</property>
  <property name="meta.media.height">1080</property>
  <property name="meta.media.top_field_first">0</property>
  <property name="meta.media.progressive">1</property>
  <property name="kdenlive:file_size">7674273</property>
  <property name="kdenlive:file_hash">54023823fd6deecbb5edab7c5f430f5c</property>
 </producer>
 <producer id="27" in="0" out="4379">
  <property name="length">4380</property>
  <property name="eof">pause</property>
  <property name="resource">/home/stephen/Desktop/Stock video/Pobal Infographic 2018-Ncu2XtN9th4.mp4</property>
  <property name="audio_index">1</property>
  <property name="video_index">0</property>
  <property name="mute_on_pause">1</property>
  <property name="mlt_service">avformat-novalidate</property>
  <property name="meta.media.nb_streams">2</property>
  <property name="meta.media.0.stream.type">video</property>
  <property name="meta.media.0.stream.frame_rate">24</property>
  <property name="meta.media.0.stream.sample_aspect_ratio">1</property>
  <property name="meta.media.0.codec.width">1280</property>
  <property name="meta.media.0.codec.height">720</property>
  <property name="meta.media.0.codec.rotate">0</property>
  <property name="meta.media.0.codec.frame_rate">24</property>
  <property name="meta.media.0.codec.pix_fmt">yuv420p</property>
  <property name="meta.media.0.codec.sample_aspect_ratio">1</property>
  <property name="meta.media.0.codec.colorspace">709</property>
  <property name="meta.media.0.codec.color_trc">1</property>
  <property name="meta.media.0.codec.name">h264</property>
  <property name="meta.media.0.codec.long_name">H.264 / AVC / MPEG-4 AVC / MPEG-4 part 10</property>
  <property name="meta.media.0.codec.bit_rate">168375</property>
  <property name="meta.attr.0.stream.handler_name.markup">VideoHandler</property>
  <property name="meta.media.1.stream.type">audio</property>
  <property name="meta.media.1.codec.sample_fmt">fltp</property>
  <property name="meta.media.1.codec.sample_rate">44100</property>
  <property name="meta.media.1.codec.channels">2</property>
  <property name="meta.media.1.codec.name">aac</property>
  <property name="meta.media.1.codec.long_name">AAC (Advanced Audio Coding)</property>
  <property name="meta.media.1.codec.bit_rate">125588</property>
  <property name="meta.attr.1.stream.handler_name.markup">SoundHandler</property>
  <property name="meta.attr.major_brand.markup">isom</property>
  <property name="meta.attr.minor_version.markup">512</property>
  <property name="meta.attr.compatible_brands.markup">isomiso2avc1mp41</property>
  <property name="meta.attr.encoder.markup">Lavf57.83.100</property>
  <property name="seekable">1</property>
  <property name="meta.media.sample_aspect_num">1</property>
  <property name="meta.media.sample_aspect_den">1</property>
  <property name="aspect_ratio">1</property>
  <property name="kdenlive:folderid">5</property>
  <property name="meta.media.frame_rate_num">1576125</property>
  <property name="meta.media.frame_rate_den">65672</property>
  <property name="meta.media.colorspace">709</property>
  <property name="meta.media.color_trc">1</property>
  <property name="meta.media.width">1280</property>
  <property name="meta.media.height">720</property>
  <property name="meta.media.top_field_first">0</property>
  <property name="meta.media.progressive">1</property>
  <property name="kdenlive:file_size">6539617</property>
  <property name="kdenlive:file_hash">01894d7b2c87a37a1b2c57e315a6aa3f</property>
 </producer>
 <producer id="28" in="0" out="2944">
  <property name="length">2945</property>
  <property name="eof">pause</property>
  <property name="resource">/home/stephen/Desktop/Stock video/SICAP.mp4</property>
  <property name="audio_index">1</property>
  <property name="video_index">0</property>
  <property name="mute_on_pause">1</property>
  <property name="mlt_service">avformat-novalidate</property>
  <property name="meta.media.nb_streams">2</property>
  <property name="meta.media.0.stream.type">video</property>
  <property name="meta.media.0.stream.frame_rate">24</property>
  <property name="meta.media.0.stream.sample_aspect_ratio">1</property>
  <property name="meta.media.0.codec.width">1280</property>
  <property name="meta.media.0.codec.height">720</property>
  <property name="meta.media.0.codec.rotate">0</property>
  <property name="meta.media.0.codec.frame_rate">24</property>
  <property name="meta.media.0.codec.pix_fmt">yuv420p</property>
  <property name="meta.media.0.codec.sample_aspect_ratio">1</property>
  <property name="meta.media.0.codec.colorspace">709</property>
  <property name="meta.media.0.codec.color_trc">1</property>
  <property name="meta.media.0.codec.name">h264</property>
  <property name="meta.media.0.codec.long_name">H.264 / AVC / MPEG-4 AVC / MPEG-4 part 10</property>
  <property name="meta.media.0.codec.bit_rate">268489</property>
  <property name="meta.attr.0.stream.handler_name.markup">VideoHandler</property>
  <property name="meta.media.1.stream.type">audio</property>
  <property name="meta.media.1.codec.sample_fmt">fltp</property>
  <property name="meta.media.1.codec.sample_rate">44100</property>
  <property name="meta.media.1.codec.channels">2</property>
  <property name="meta.media.1.codec.name">aac</property>
  <property name="meta.media.1.codec.long_name">AAC (Advanced Audio Coding)</property>
  <property name="meta.media.1.codec.bit_rate">125588</property>
  <property name="meta.attr.1.stream.handler_name.markup">SoundHandler</property>
  <property name="meta.attr.major_brand.markup">isom</property>
  <property name="meta.attr.minor_version.markup">512</property>
  <property name="meta.attr.compatible_brands.markup">isomiso2avc1mp41</property>
  <property name="meta.attr.encoder.markup">Lavf57.83.100</property>
  <property name="seekable">1</property>
  <property name="meta.media.sample_aspect_num">1</property>
  <property name="meta.media.sample_aspect_den">1</property>
  <property name="aspect_ratio">1</property>
  <property name="kdenlive:folderid">5</property>
  <property name="meta.media.frame_rate_num">24</property>
  <property name="meta.media.frame_rate_den">1</property>
  <property name="meta.media.colorspace">709</property>
  <property name="meta.media.color_trc">1</property>
  <property name="meta.media.width">1280</property>
  <property name="meta.media.height">720</property>
  <property name="meta.media.top_field_first">0</property>
  <property name="meta.media.progressive">1</property>
  <property name="kdenlive:file_size">5871412</property>
  <property name="kdenlive:file_hash">c35ca883cddbadb518f903458cf31329</property>
 </producer>
 <producer id="29" in="0" out="300">
  <property name="length">301</property>
  <property name="eof">pause</property>
  <property name="resource">/home/stephen/Desktop/Stock video/typing.mp4</property>
  <property name="audio_index">-1</property>
  <property name="video_index">0</property>
  <property name="mute_on_pause">1</property>
  <property name="mlt_service">avformat-novalidate</property>
  <property name="meta.media.nb_streams">1</property>
  <property name="meta.media.0.stream.type">video</property>
  <property name="meta.media.0.stream.frame_rate">25</property>
  <property name="meta.media.0.stream.sample_aspect_ratio">1</property>
  <property name="meta.media.0.codec.width">1920</property>
  <property name="meta.media.0.codec.height">1080</property>
  <property name="meta.media.0.codec.rotate">0</property>
  <property name="meta.media.0.codec.frame_rate">25</property>
  <property name="meta.media.0.codec.pix_fmt">yuv420p</property>
  <property name="meta.media.0.codec.sample_aspect_ratio">1</property>
  <property name="meta.media.0.codec.colorspace">709</property>
  <property name="meta.media.0.codec.color_trc">1</property>
  <property name="meta.media.0.codec.name">h264</property>
  <property name="meta.media.0.codec.long_name">H.264 / AVC / MPEG-4 AVC / MPEG-4 part 10</property>
  <property name="meta.media.0.codec.bit_rate">4467700</property>
  <property name="meta.attr.0.stream.creation_time.markup">2017-05-08T04:34:41.000000Z</property>
  <property name="meta.attr.0.stream.handler_name.markup">L-SMASH Video Handler</property>
  <property name="meta.attr.0.stream.encoder.markup">AVC Coding</property>
  <property name="meta.attr.major_brand.markup">mp42</property>
  <property name="meta.attr.minor_version.markup">0</property>
  <property name="meta.attr.compatible_brands.markup">mp42mp41isomavc1</property>
  <property name="meta.attr.creation_time.markup">2017-05-08T04:34:41.000000Z</property>
  <property name="seekable">1</property>
  <property name="meta.media.sample_aspect_num">1</property>
  <property name="meta.media.sample_aspect_den">1</property>
  <property name="aspect_ratio">1</property>
  <property name="kdenlive:folderid">5</property>
  <property name="meta.media.frame_rate_num">25</property>
  <property name="meta.media.frame_rate_den">1</property>
  <property name="meta.media.colorspace">709</property>
  <property name="meta.media.color_trc">1</property>
  <property name="meta.media.width">1920</property>
  <property name="meta.media.height">1080</property>
  <property name="meta.media.top_field_first">0</property>
  <property name="meta.media.progressive">1</property>
  <property name="kdenlive:file_size">6728417</property>
  <property name="kdenlive:file_hash">8067874351f1dbdb45158affa23cf76a</property>
 </producer>
 <producer title="Anonymous Submission" id="30" in="0" out="899">
  <property name="length">900</property>
  <property name="eof">pause</property>
  <property name="resource">/home/stephen/Desktop/Stock video/typing2.mp4</property>
  <property name="audio_index">1</property>
  <property name="video_index">0</property>
  <property name="mute_on_pause">1</property>
  <property name="mlt_service">avformat-novalidate</property>
  <property name="meta.media.nb_streams">2</property>
  <property name="meta.media.0.stream.type">video</property>
  <property name="meta.media.0.stream.frame_rate">29.97</property>
  <property name="meta.media.0.stream.sample_aspect_ratio">1</property>
  <property name="meta.media.0.codec.width">1920</property>
  <property name="meta.media.0.codec.height">1080</property>
  <property name="meta.media.0.codec.rotate">0</property>
  <property name="meta.media.0.codec.frame_rate">29.97</property>
  <property name="meta.media.0.codec.pix_fmt">yuv420p</property>
  <property name="meta.media.0.codec.sample_aspect_ratio">1</property>
  <property name="meta.media.0.codec.colorspace">709</property>
  <property name="meta.media.0.codec.color_trc">1</property>
  <property name="meta.media.0.codec.name">h264</property>
  <property name="meta.media.0.codec.long_name">H.264 / AVC / MPEG-4 AVC / MPEG-4 part 10</property>
  <property name="meta.media.0.codec.bit_rate">4485944</property>
  <property name="meta.attr.0.stream.creation_time.markup">2015-03-06T15:20:17.000000Z</property>
  <property name="meta.attr.0.stream.handler_name.markup">L-SMASH Video Handler</property>
  <property name="meta.attr.0.stream.encoder.markup">AVC Coding</property>
  <property name="meta.media.1.stream.type">audio</property>
  <property name="meta.media.1.codec.sample_fmt">fltp</property>
  <property name="meta.media.1.codec.sample_rate">48000</property>
  <property name="meta.media.1.codec.channels">2</property>
  <property name="meta.media.1.codec.name">aac</property>
  <property name="meta.media.1.codec.long_name">AAC (Advanced Audio Coding)</property>
  <property name="meta.media.1.codec.bit_rate">256000</property>
  <property name="meta.attr.1.stream.creation_time.markup">2015-03-06T15:20:17.000000Z</property>
  <property name="meta.attr.1.stream.handler_name.markup">L-SMASH Audio Handler</property>
  <property name="meta.attr.major_brand.markup">mp42</property>
  <property name="meta.attr.minor_version.markup">0</property>
  <property name="meta.attr.compatible_brands.markup">mp42mp41isomavc1</property>
  <property name="meta.attr.creation_time.markup">2015-03-06T15:20:17.000000Z</property>
  <property name="seekable">1</property>
  <property name="meta.media.sample_aspect_num">1</property>
  <property name="meta.media.sample_aspect_den">1</property>
  <property name="aspect_ratio">1</property>
  <property name="kdenlive:folderid">5</property>
  <property name="meta.media.frame_rate_num">30000</property>
  <property name="meta.media.frame_rate_den">1001</property>
  <property name="meta.media.colorspace">709</property>
  <property name="meta.media.color_trc">1</property>
  <property name="meta.media.width">1920</property>
  <property name="meta.media.height">1080</property>
  <property name="meta.media.top_field_first">0</property>
  <property name="meta.media.progressive">1</property>
  <property name="kdenlive:file_size">21322821</property>
  <property name="kdenlive:file_hash">64c67a7a3c549a4f68d053f20a583d85</property>
  <property name="global_feed">1</property>
 </producer>
 <producer title="Anonymous Submission" id="31" in="0" out="434">
  <property name="length">435</property>
  <property name="eof">pause</property>
  <property name="resource">/home/stephen/Desktop/Stock video/walking.mp4</property>
  <property name="audio_index">1</property>
  <property name="video_index">0</property>
  <property name="mute_on_pause">1</property>
  <property name="mlt_service">avformat-novalidate</property>
  <property name="meta.media.nb_streams">2</property>
  <property name="meta.media.0.stream.type">video</property>
  <property name="meta.media.0.stream.frame_rate">29.97</property>
  <property name="meta.media.0.stream.sample_aspect_ratio">1</property>
  <property name="meta.media.0.codec.width">1920</property>
  <property name="meta.media.0.codec.height">1080</property>
  <property name="meta.media.0.codec.rotate">0</property>
  <property name="meta.media.0.codec.frame_rate">29.97</property>
  <property name="meta.media.0.codec.pix_fmt">yuv420p</property>
  <property name="meta.media.0.codec.sample_aspect_ratio">1</property>
  <property name="meta.media.0.codec.colorspace">709</property>
  <property name="meta.media.0.codec.color_trc">1</property>
  <property name="meta.media.0.codec.name">h264</property>
  <property name="meta.media.0.codec.long_name">H.264 / AVC / MPEG-4 AVC / MPEG-4 part 10</property>
  <property name="meta.media.0.codec.bit_rate">4971382</property>
  <property name="meta.attr.0.stream.creation_time.markup">2018-01-27T20:56:00.000000Z</property>
  <property name="meta.attr.0.stream.handler_name.markup">L-SMASH Video Handler</property>
  <property name="meta.attr.0.stream.encoder.markup">AVC Coding</property>
  <property name="meta.media.1.stream.type">audio</property>
  <property name="meta.media.1.codec.sample_fmt">fltp</property>
  <property name="meta.media.1.codec.sample_rate">48000</property>
  <property name="meta.media.1.codec.channels">2</property>
  <property name="meta.media.1.codec.name">aac</property>
  <property name="meta.media.1.codec.long_name">AAC (Advanced Audio Coding)</property>
  <property name="meta.media.1.codec.bit_rate">255999</property>
  <property name="meta.attr.1.stream.creation_time.markup">2018-01-27T20:56:00.000000Z</property>
  <property name="meta.attr.1.stream.handler_name.markup">L-SMASH Audio Handler</property>
  <property name="meta.attr.major_brand.markup">mp42</property>
  <property name="meta.attr.minor_version.markup">0</property>
  <property name="meta.attr.compatible_brands.markup">mp42mp41isomavc1</property>
  <property name="meta.attr.creation_time.markup">2018-01-27T20:56:00.000000Z</property>
  <property name="seekable">1</property>
  <property name="meta.media.sample_aspect_num">1</property>
  <property name="meta.media.sample_aspect_den">1</property>
  <property name="aspect_ratio">1</property>
  <property name="kdenlive:folderid">5</property>
  <property name="meta.media.frame_rate_num">30000</property>
  <property name="meta.media.frame_rate_den">1001</property>
  <property name="meta.media.colorspace">709</property>
  <property name="meta.media.color_trc">1</property>
  <property name="meta.media.width">1920</property>
  <property name="meta.media.height">1080</property>
  <property name="meta.media.top_field_first">0</property>
  <property name="meta.media.progressive">1</property>
  <property name="kdenlive:file_size">11370487</property>
  <property name="kdenlive:file_hash">b74bc9249ed7aa30b06c284888e74515</property>
  <property name="global_feed">1</property>
 </producer>
 <producer title="Anonymous Submission" id="32" in="0" out="675">
  <property name="length">676</property>
  <property name="eof">pause</property>
  <property name="resource">/home/stephen/Desktop/Stock video/wet-leaves.mp4</property>
  <property name="audio_index">1</property>
  <property name="video_index">0</property>
  <property name="mute_on_pause">1</property>
  <property name="mlt_service">avformat-novalidate</property>
  <property name="meta.media.nb_streams">2</property>
  <property name="meta.media.0.stream.type">video</property>
  <property name="meta.media.0.stream.frame_rate">29.97</property>
  <property name="meta.media.0.stream.sample_aspect_ratio">1</property>
  <property name="meta.media.0.codec.width">1920</property>
  <property name="meta.media.0.codec.height">1080</property>
  <property name="meta.media.0.codec.rotate">0</property>
  <property name="meta.media.0.codec.frame_rate">29.97</property>
  <property name="meta.media.0.codec.pix_fmt">yuv420p</property>
  <property name="meta.media.0.codec.sample_aspect_ratio">1</property>
  <property name="meta.media.0.codec.colorspace">709</property>
  <property name="meta.media.0.codec.color_trc">1</property>
  <property name="meta.media.0.codec.name">h264</property>
  <property name="meta.media.0.codec.long_name">H.264 / AVC / MPEG-4 AVC / MPEG-4 part 10</property>
  <property name="meta.media.0.codec.bit_rate">4462322</property>
  <property name="meta.attr.0.stream.creation_time.markup">2015-03-05T13:20:53.000000Z</property>
  <property name="meta.attr.0.stream.handler_name.markup">L-SMASH Video Handler</property>
  <property name="meta.attr.0.stream.encoder.markup">AVC Coding</property>
  <property name="meta.media.1.stream.type">audio</property>
  <property name="meta.media.1.codec.sample_fmt">fltp</property>
  <property name="meta.media.1.codec.sample_rate">48000</property>
  <property name="meta.media.1.codec.channels">2</property>
  <property name="meta.media.1.codec.name">aac</property>
  <property name="meta.media.1.codec.long_name">AAC (Advanced Audio Coding)</property>
  <property name="meta.media.1.codec.bit_rate">255999</property>
  <property name="meta.attr.1.stream.creation_time.markup">2015-03-05T13:20:53.000000Z</property>
  <property name="meta.attr.1.stream.handler_name.markup">L-SMASH Audio Handler</property>
  <property name="meta.attr.major_brand.markup">mp42</property>
  <property name="meta.attr.minor_version.markup">0</property>
  <property name="meta.attr.compatible_brands.markup">mp42mp41isomavc1</property>
  <property name="meta.attr.creation_time.markup">2015-03-05T13:20:53.000000Z</property>
  <property name="seekable">1</property>
  <property name="meta.media.sample_aspect_num">1</property>
  <property name="meta.media.sample_aspect_den">1</property>
  <property name="aspect_ratio">1</property>
  <property name="kdenlive:folderid">5</property>
  <property name="meta.media.frame_rate_num">30000</property>
  <property name="meta.media.frame_rate_den">1001</property>
  <property name="meta.media.colorspace">709</property>
  <property name="meta.media.color_trc">1</property>
  <property name="meta.media.width">1920</property>
  <property name="meta.media.height">1080</property>
  <property name="meta.media.top_field_first">0</property>
  <property name="meta.media.progressive">1</property>
  <property name="kdenlive:file_size">15939625</property>
  <property name="kdenlive:file_hash">d9f05e741d401ca1ef993aad3d3db60a</property>
  <property name="global_feed">1</property>
 </producer>
 <producer id="33" in="0" out="407">
  <property name="length">408</property>
  <property name="eof">pause</property>
  <property name="resource">/home/stephen/Desktop/New/170728_Berlin_C_033.mp4</property>
  <property name="audio_index">-1</property>
  <property name="video_index">0</property>
  <property name="mute_on_pause">1</property>
  <property name="mlt_service">avformat-novalidate</property>
  <property name="meta.media.nb_streams">1</property>
  <property name="meta.media.0.stream.type">video</property>
  <property name="meta.media.0.stream.frame_rate">25</property>
  <property name="meta.media.0.stream.sample_aspect_ratio">0</property>
  <property name="meta.media.0.codec.width">1920</property>
  <property name="meta.media.0.codec.height">1080</property>
  <property name="meta.media.0.codec.rotate">0</property>
  <property name="meta.media.0.codec.frame_rate">25</property>
  <property name="meta.media.0.codec.pix_fmt">yuv420p</property>
  <property name="meta.media.0.codec.sample_aspect_ratio">0</property>
  <property name="meta.media.0.codec.colorspace">709</property>
  <property name="meta.media.0.codec.color_trc">1</property>
  <property name="meta.media.0.codec.name">h264</property>
  <property name="meta.media.0.codec.long_name">H.264 / AVC / MPEG-4 AVC / MPEG-4 part 10</property>
  <property name="meta.media.0.codec.bit_rate">36995550</property>
  <property name="meta.attr.0.stream.creation_time.markup">2017-08-11T19:47:21.000000Z</property>
  <property name="meta.attr.0.stream.language.markup">eng</property>
  <property name="meta.attr.0.stream.handler_name.markup">Alias Data Handler</property>
  <property name="meta.attr.0.stream.encoder.markup">AVC Coding</property>
  <property name="meta.attr.major_brand.markup">mp42</property>
  <property name="meta.attr.minor_version.markup">0</property>
  <property name="meta.attr.compatible_brands.markup">mp42mp41</property>
  <property name="meta.attr.creation_time.markup">2017-08-11T19:47:21.000000Z</property>
  <property name="seekable">1</property>
  <property name="meta.media.sample_aspect_num">1</property>
  <property name="meta.media.sample_aspect_den">1</property>
  <property name="aspect_ratio">1</property>
  <property name="kdenlive:folderid">5</property>
  <property name="meta.media.frame_rate_num">25</property>
  <property name="meta.media.frame_rate_den">1</property>
  <property name="meta.media.colorspace">709</property>
  <property name="meta.media.color_trc">1</property>
  <property name="meta.media.width">1920</property>
  <property name="meta.media.height">1080</property>
  <property name="meta.media.top_field_first">0</property>
  <property name="meta.media.progressive">1</property>
  <property name="kdenlive:file_size">75485788</property>
  <property name="kdenlive:file_hash">dbae5a0395f99c90779674f5d2b37ee8</property>
 </producer>
 <producer title="Anonymous Submission" id="34" in="0" out="1809">
  <property name="length">1810</property>
  <property name="eof">pause</property>
  <property name="resource">/home/stephen/Desktop/New/342960541.mp4</property>
  <property name="audio_index">1</property>
  <property name="video_index">0</property>
  <property name="mute_on_pause">1</property>
  <property name="mlt_service">avformat-novalidate</property>
  <property name="meta.media.nb_streams">2</property>
  <property name="meta.media.0.stream.type">video</property>
  <property name="meta.media.0.stream.frame_rate">29.97</property>
  <property name="meta.media.0.stream.sample_aspect_ratio">1</property>
  <property name="meta.media.0.codec.width">1920</property>
  <property name="meta.media.0.codec.height">1080</property>
  <property name="meta.media.0.codec.rotate">0</property>
  <property name="meta.media.0.codec.frame_rate">29.97</property>
  <property name="meta.media.0.codec.pix_fmt">yuv420p</property>
  <property name="meta.media.0.codec.sample_aspect_ratio">1</property>
  <property name="meta.media.0.codec.colorspace">709</property>
  <property name="meta.media.0.codec.color_trc">1</property>
  <property name="meta.media.0.codec.name">h264</property>
  <property name="meta.media.0.codec.long_name">H.264 / AVC / MPEG-4 AVC / MPEG-4 part 10</property>
  <property name="meta.media.0.codec.bit_rate">4202274</property>
  <property name="meta.attr.0.stream.creation_time.markup">2015-03-05T14:41:24.000000Z</property>
  <property name="meta.attr.0.stream.handler_name.markup">L-SMASH Video Handler</property>
  <property name="meta.attr.0.stream.encoder.markup">AVC Coding</property>
  <property name="meta.media.1.stream.type">audio</property>
  <property name="meta.media.1.codec.sample_fmt">fltp</property>
  <property name="meta.media.1.codec.sample_rate">48000</property>
  <property name="meta.media.1.codec.channels">2</property>
  <property name="meta.media.1.codec.name">aac</property>
  <property name="meta.media.1.codec.long_name">AAC (Advanced Audio Coding)</property>
  <property name="meta.media.1.codec.bit_rate">256000</property>
  <property name="meta.attr.1.stream.creation_time.markup">2015-03-05T14:41:24.000000Z</property>
  <property name="meta.attr.1.stream.handler_name.markup">L-SMASH Audio Handler</property>
  <property name="meta.attr.major_brand.markup">mp42</property>
  <property name="meta.attr.minor_version.markup">0</property>
  <property name="meta.attr.compatible_brands.markup">mp42mp41isomavc1</property>
  <property name="meta.attr.creation_time.markup">2015-03-05T14:41:24.000000Z</property>
  <property name="seekable">1</property>
  <property name="meta.media.sample_aspect_num">1</property>
  <property name="meta.media.sample_aspect_den">1</property>
  <property name="aspect_ratio">1</property>
  <property name="kdenlive:folderid">5</property>
  <property name="meta.media.frame_rate_num">30000</property>
  <property name="meta.media.frame_rate_den">1001</property>
  <property name="meta.media.colorspace">709</property>
  <property name="meta.media.color_trc">1</property>
  <property name="meta.media.width">1920</property>
  <property name="meta.media.height">1080</property>
  <property name="meta.media.top_field_first">0</property>
  <property name="meta.media.progressive">1</property>
  <property name="kdenlive:file_size">40356993</property>
  <property name="kdenlive:file_hash">2d13e8cc6cb1c62128020252d218b7ce</property>
  <property name="global_feed">1</property>
 </producer>
 <producer id="35" in="0" out="703">
  <property name="length">704</property>
  <property name="eof">pause</property>
  <property name="resource">/home/stephen/Desktop/New/343732582.mp4</property>
  <property name="audio_index">1</property>
  <property name="video_index">0</property>
  <property name="mute_on_pause">1</property>
  <property name="mlt_service">avformat-novalidate</property>
  <property name="meta.media.nb_streams">2</property>
  <property name="meta.media.0.stream.type">video</property>
  <property name="meta.media.0.stream.frame_rate">23.976</property>
  <property name="meta.media.0.stream.sample_aspect_ratio">1</property>
  <property name="meta.media.0.codec.width">1280</property>
  <property name="meta.media.0.codec.height">720</property>
  <property name="meta.media.0.codec.rotate">0</property>
  <property name="meta.media.0.codec.frame_rate">23.976</property>
  <property name="meta.media.0.codec.pix_fmt">yuv420p</property>
  <property name="meta.media.0.codec.sample_aspect_ratio">1</property>
  <property name="meta.media.0.codec.colorspace">709</property>
  <property name="meta.media.0.codec.color_trc">1</property>
  <property name="meta.media.0.codec.name">h264</property>
  <property name="meta.media.0.codec.long_name">H.264 / AVC / MPEG-4 AVC / MPEG-4 part 10</property>
  <property name="meta.media.0.codec.bit_rate">1914431</property>
  <property name="meta.attr.0.stream.creation_time.markup">2015-03-07T22:03:37.000000Z</property>
  <property name="meta.attr.0.stream.handler_name.markup">L-SMASH Video Handler</property>
  <property name="meta.attr.0.stream.encoder.markup">AVC Coding</property>
  <property name="meta.media.1.stream.type">audio</property>
  <property name="meta.media.1.codec.sample_fmt">fltp</property>
  <property name="meta.media.1.codec.sample_rate">48000</property>
  <property name="meta.media.1.codec.channels">2</property>
  <property name="meta.media.1.codec.name">aac</property>
  <property name="meta.media.1.codec.long_name">AAC (Advanced Audio Coding)</property>
  <property name="meta.media.1.codec.bit_rate">147000</property>
  <property name="meta.attr.1.stream.creation_time.markup">2015-03-07T22:03:37.000000Z</property>
  <property name="meta.attr.1.stream.handler_name.markup">L-SMASH Audio Handler</property>
  <property name="meta.attr.major_brand.markup">mp42</property>
  <property name="meta.attr.minor_version.markup">0</property>
  <property name="meta.attr.compatible_brands.markup">mp42mp41isomavc1</property>
  <property name="meta.attr.creation_time.markup">2015-03-07T22:03:37.000000Z</property>
  <property name="seekable">1</property>
  <property name="meta.media.sample_aspect_num">1</property>
  <property name="meta.media.sample_aspect_den">1</property>
  <property name="aspect_ratio">1</property>
  <property name="kdenlive:folderid">5</property>
  <property name="meta.media.frame_rate_num">24000</property>
  <property name="meta.media.frame_rate_den">1001</property>
  <property name="meta.media.colorspace">709</property>
  <property name="meta.media.color_trc">1</property>
  <property name="meta.media.width">1280</property>
  <property name="meta.media.height">720</property>
  <property name="meta.media.top_field_first">0</property>
  <property name="meta.media.progressive">1</property>
  <property name="kdenlive:file_size">7253501</property>
  <property name="kdenlive:file_hash">99cdee8474e89e12f25cdf7f164dacde</property>
 </producer>
 <producer title="Anonymous Submission" id="36" in="0" out="312">
  <property name="length">313</property>
  <property name="eof">pause</property>
  <property name="resource">/home/stephen/Desktop/New/563397762.mp4</property>
  <property name="audio_index">-1</property>
  <property name="video_index">0</property>
  <property name="mute_on_pause">1</property>
  <property name="mlt_service">avformat-novalidate</property>
  <property name="meta.media.nb_streams">1</property>
  <property name="meta.media.0.stream.type">video</property>
  <property name="meta.media.0.stream.frame_rate">25</property>
  <property name="meta.media.0.stream.sample_aspect_ratio">1</property>
  <property name="meta.media.0.codec.width">1920</property>
  <property name="meta.media.0.codec.height">1080</property>
  <property name="meta.media.0.codec.rotate">0</property>
  <property name="meta.media.0.codec.frame_rate">25</property>
  <property name="meta.media.0.codec.pix_fmt">yuv420p</property>
  <property name="meta.media.0.codec.sample_aspect_ratio">1</property>
  <property name="meta.media.0.codec.colorspace">709</property>
  <property name="meta.media.0.codec.color_trc">1</property>
  <property name="meta.media.0.codec.name">h264</property>
  <property name="meta.media.0.codec.long_name">H.264 / AVC / MPEG-4 AVC / MPEG-4 part 10</property>
  <property name="meta.media.0.codec.bit_rate">1382742</property>
  <property name="meta.attr.0.stream.creation_time.markup">2016-07-09T09:35:26.000000Z</property>
  <property name="meta.attr.0.stream.handler_name.markup">L-SMASH Video Handler</property>
  <property name="meta.attr.0.stream.encoder.markup">AVC Coding</property>
  <property name="meta.attr.major_brand.markup">mp42</property>
  <property name="meta.attr.minor_version.markup">0</property>
  <property name="meta.attr.compatible_brands.markup">mp42mp41isomavc1</property>
  <property name="meta.attr.creation_time.markup">2016-07-09T09:35:26.000000Z</property>
  <property name="seekable">1</property>
  <property name="meta.media.sample_aspect_num">1</property>
  <property name="meta.media.sample_aspect_den">1</property>
  <property name="aspect_ratio">1</property>
  <property name="kdenlive:folderid">5</property>
  <property name="meta.media.frame_rate_num">25</property>
  <property name="meta.media.frame_rate_den">1</property>
  <property name="meta.media.colorspace">709</property>
  <property name="meta.media.color_trc">1</property>
  <property name="meta.media.width">1920</property>
  <property name="meta.media.height">1080</property>
  <property name="meta.media.top_field_first">0</property>
  <property name="meta.media.progressive">1</property>
  <property name="kdenlive:file_size">2168783</property>
  <property name="kdenlive:file_hash">e88602a58eaa5650f5e15d120e8aecb6</property>
  <property name="global_feed">1</property>
 </producer>
 <producer title="Anonymous Submission" id="37" in="0" out="435">
  <property name="length">436</property>
  <property name="eof">pause</property>
  <property name="resource">/home/stephen/Desktop/New/722777471.mp4</property>
  <property name="audio_index">-1</property>
  <property name="video_index">0</property>
  <property name="mute_on_pause">1</property>
  <property name="mlt_service">avformat-novalidate</property>
  <property name="meta.media.nb_streams">1</property>
  <property name="meta.media.0.stream.type">video</property>
  <property name="meta.media.0.stream.frame_rate">30</property>
  <property name="meta.media.0.stream.sample_aspect_ratio">1</property>
  <property name="meta.media.0.codec.width">1920</property>
  <property name="meta.media.0.codec.height">1080</property>
  <property name="meta.media.0.codec.rotate">0</property>
  <property name="meta.media.0.codec.frame_rate">30</property>
  <property name="meta.media.0.codec.pix_fmt">yuv420p</property>
  <property name="meta.media.0.codec.sample_aspect_ratio">1</property>
  <property name="meta.media.0.codec.colorspace">709</property>
  <property name="meta.media.0.codec.color_trc">1</property>
  <property name="meta.media.0.codec.name">h264</property>
  <property name="meta.media.0.codec.long_name">H.264 / AVC / MPEG-4 AVC / MPEG-4 part 10</property>
  <property name="meta.media.0.codec.bit_rate">4481533</property>
  <property name="meta.attr.0.stream.creation_time.markup">2017-03-30T11:22:21.000000Z</property>
  <property name="meta.attr.0.stream.handler_name.markup">L-SMASH Video Handler</property>
  <property name="meta.attr.0.stream.encoder.markup">AVC Coding</property>
  <property name="meta.attr.major_brand.markup">mp42</property>
  <property name="meta.attr.minor_version.markup">0</property>
  <property name="meta.attr.compatible_brands.markup">mp42mp41isomavc1</property>
  <property name="meta.attr.creation_time.markup">2017-03-30T11:22:21.000000Z</property>
  <property name="seekable">1</property>
  <property name="meta.media.sample_aspect_num">1</property>
  <property name="meta.media.sample_aspect_den">1</property>
  <property name="aspect_ratio">1</property>
  <property name="kdenlive:folderid">5</property>
  <property name="meta.media.frame_rate_num">30</property>
  <property name="meta.media.frame_rate_den">1</property>
  <property name="meta.media.colorspace">709</property>
  <property name="meta.media.color_trc">1</property>
  <property name="meta.media.width">1920</property>
  <property name="meta.media.height">1080</property>
  <property name="meta.media.top_field_first">0</property>
  <property name="meta.media.progressive">1</property>
  <property name="kdenlive:file_size">9770858</property>
  <property name="kdenlive:file_hash">c11d03cea4abfd03edf8e0e9a85e1d43</property>
  <property name="global_feed">1</property>
 </producer>
 <producer title="Anonymous Submission" id="38" in="0" out="499">
  <property name="length">500</property>
  <property name="eof">pause</property>
  <property name="resource">/home/stephen/Desktop/New/724382768.mp4</property>
  <property name="audio_index">-1</property>
  <property name="video_index">0</property>
  <property name="mute_on_pause">1</property>
  <property name="mlt_service">avformat-novalidate</property>
  <property name="meta.media.nb_streams">1</property>
  <property name="meta.media.0.stream.type">video</property>
  <property name="meta.media.0.stream.frame_rate">29.97</property>
  <property name="meta.media.0.stream.sample_aspect_ratio">1</property>
  <property name="meta.media.0.codec.width">1920</property>
  <property name="meta.media.0.codec.height">1080</property>
  <property name="meta.media.0.codec.rotate">0</property>
  <property name="meta.media.0.codec.frame_rate">29.97</property>
  <property name="meta.media.0.codec.pix_fmt">yuv420p</property>
  <property name="meta.media.0.codec.sample_aspect_ratio">1</property>
  <property name="meta.media.0.codec.colorspace">709</property>
  <property name="meta.media.0.codec.color_trc">1</property>
  <property name="meta.media.0.codec.name">h264</property>
  <property name="meta.media.0.codec.long_name">H.264 / AVC / MPEG-4 AVC / MPEG-4 part 10</property>
  <property name="meta.media.0.codec.bit_rate">1907553</property>
  <property name="meta.attr.0.stream.creation_time.markup">2017-04-01T17:00:41.000000Z</property>
  <property name="meta.attr.0.stream.handler_name.markup">L-SMASH Video Handler</property>
  <property name="meta.attr.0.stream.encoder.markup">AVC Coding</property>
  <property name="meta.attr.major_brand.markup">mp42</property>
  <property name="meta.attr.minor_version.markup">0</property>
  <property name="meta.attr.compatible_brands.markup">mp42mp41isomavc1</property>
  <property name="meta.attr.creation_time.markup">2017-04-01T17:00:41.000000Z</property>
  <property name="seekable">1</property>
  <property name="meta.media.sample_aspect_num">1</property>
  <property name="meta.media.sample_aspect_den">1</property>
  <property name="aspect_ratio">1</property>
  <property name="kdenlive:folderid">5</property>
  <property name="meta.media.frame_rate_num">30000</property>
  <property name="meta.media.frame_rate_den">1001</property>
  <property name="meta.media.colorspace">709</property>
  <property name="meta.media.color_trc">1</property>
  <property name="meta.media.width">1920</property>
  <property name="meta.media.height">1080</property>
  <property name="meta.media.top_field_first">0</property>
  <property name="meta.media.progressive">1</property>
  <property name="kdenlive:file_size">4774512</property>
  <property name="kdenlive:file_hash">d2494e57681aa60810c7eb1f1f568926</property>
  <property name="global_feed">1</property>
  <property name="kdenlive:zone_in">303</property>
  <property name="kdenlive:zone_out">500</property>
 </producer>
 <producer title="Anonymous Submission" id="39" in="0" out="213">
  <property name="length">214</property>
  <property name="eof">pause</property>
  <property name="resource">/home/stephen/Desktop/New/738939808.mp4</property>
  <property name="audio_index">-1</property>
  <property name="video_index">0</property>
  <property name="mute_on_pause">1</property>
  <property name="mlt_service">avformat-novalidate</property>
  <property name="meta.media.nb_streams">1</property>
  <property name="meta.media.0.stream.type">video</property>
  <property name="meta.media.0.stream.frame_rate">30</property>
  <property name="meta.media.0.stream.sample_aspect_ratio">1</property>
  <property name="meta.media.0.codec.width">1920</property>
  <property name="meta.media.0.codec.height">1080</property>
  <property name="meta.media.0.codec.rotate">0</property>
  <property name="meta.media.0.codec.frame_rate">30</property>
  <property name="meta.media.0.codec.pix_fmt">yuv420p</property>
  <property name="meta.media.0.codec.sample_aspect_ratio">1</property>
  <property name="meta.media.0.codec.colorspace">709</property>
  <property name="meta.media.0.codec.color_trc">1</property>
  <property name="meta.media.0.codec.name">h264</property>
  <property name="meta.media.0.codec.long_name">H.264 / AVC / MPEG-4 AVC / MPEG-4 part 10</property>
  <property name="meta.media.0.codec.bit_rate">4407543</property>
  <property name="meta.attr.0.stream.creation_time.markup">2017-04-24T08:48:55.000000Z</property>
  <property name="meta.attr.0.stream.handler_name.markup">L-SMASH Video Handler</property>
  <property name="meta.attr.0.stream.encoder.markup">AVC Coding</property>
  <property name="meta.attr.major_brand.markup">mp42</property>
  <property name="meta.attr.minor_version.markup">0</property>
  <property name="meta.attr.compatible_brands.markup">mp42mp41isomavc1</property>
  <property name="meta.attr.creation_time.markup">2017-04-24T08:48:55.000000Z</property>
  <property name="seekable">1</property>
  <property name="meta.media.sample_aspect_num">1</property>
  <property name="meta.media.sample_aspect_den">1</property>
  <property name="aspect_ratio">1</property>
  <property name="kdenlive:folderid">5</property>
  <property name="meta.media.frame_rate_num">30</property>
  <property name="meta.media.frame_rate_den">1</property>
  <property name="meta.media.colorspace">709</property>
  <property name="meta.media.color_trc">1</property>
  <property name="meta.media.width">1920</property>
  <property name="meta.media.height">1080</property>
  <property name="meta.media.top_field_first">0</property>
  <property name="meta.media.progressive">1</property>
  <property name="kdenlive:file_size">4724039</property>
  <property name="kdenlive:file_hash">32c07f8aa1b2610cfc7cb1626523dde9</property>
  <property name="global_feed">1</property>
 </producer>
 <producer title="Anonymous Submission" id="40" in="0" out="251">
  <property name="length">252</property>
  <property name="eof">pause</property>
  <property name="resource">/home/stephen/Desktop/New/Abstract - 12902.mp4</property>
  <property name="audio_index">-1</property>
  <property name="video_index">0</property>
  <property name="mute_on_pause">1</property>
  <property name="mlt_service">avformat-novalidate</property>
  <property name="meta.media.nb_streams">1</property>
  <property name="meta.media.0.stream.type">video</property>
  <property name="meta.media.0.stream.frame_rate">29.97</property>
  <property name="meta.media.0.stream.sample_aspect_ratio">1</property>
  <property name="meta.media.0.codec.width">1920</property>
  <property name="meta.media.0.codec.height">1080</property>
  <property name="meta.media.0.codec.rotate">0</property>
  <property name="meta.media.0.codec.frame_rate">29.97</property>
  <property name="meta.media.0.codec.pix_fmt">yuv420p</property>
  <property name="meta.media.0.codec.sample_aspect_ratio">1</property>
  <property name="meta.media.0.codec.colorspace">709</property>
  <property name="meta.media.0.codec.color_trc">1</property>
  <property name="meta.media.0.codec.name">h264</property>
  <property name="meta.media.0.codec.long_name">H.264 / AVC / MPEG-4 AVC / MPEG-4 part 10</property>
  <property name="meta.media.0.codec.bit_rate">4977200</property>
  <property name="meta.attr.0.stream.creation_time.markup">2017-11-12T22:17:57.000000Z</property>
  <property name="meta.attr.0.stream.handler_name.markup">L-SMASH Video Handler</property>
  <property name="meta.attr.0.stream.encoder.markup">AVC Coding</property>
  <property name="meta.attr.major_brand.markup">mp42</property>
  <property name="meta.attr.minor_version.markup">0</property>
  <property name="meta.attr.compatible_brands.markup">mp42mp41isomavc1</property>
  <property name="meta.attr.creation_time.markup">2017-11-12T22:17:57.000000Z</property>
  <property name="seekable">1</property>
  <property name="meta.media.sample_aspect_num">1</property>
  <property name="meta.media.sample_aspect_den">1</property>
  <property name="aspect_ratio">1</property>
  <property name="kdenlive:folderid">5</property>
  <property name="meta.media.frame_rate_num">30000</property>
  <property name="meta.media.frame_rate_den">1001</property>
  <property name="meta.media.colorspace">709</property>
  <property name="meta.media.color_trc">1</property>
  <property name="meta.media.width">1920</property>
  <property name="meta.media.height">1080</property>
  <property name="meta.media.top_field_first">0</property>
  <property name="meta.media.progressive">1</property>
  <property name="kdenlive:file_size">6274099</property>
  <property name="kdenlive:file_hash">a817b4a1450eb7693faaf4e5bbc0e627</property>
  <property name="global_feed">1</property>
 </producer>
 <producer id="41" in="0" out="474">
  <property name="length">475</property>
  <property name="eof">pause</property>
  <property name="resource">/home/stephen/Desktop/New/Rain - 10885.mp4</property>
  <property name="audio_index">-1</property>
  <property name="video_index">0</property>
  <property name="mute_on_pause">1</property>
  <property name="mlt_service">avformat-novalidate</property>
  <property name="meta.media.nb_streams">1</property>
  <property name="meta.media.0.stream.type">video</property>
  <property name="meta.media.0.stream.frame_rate">29.97</property>
  <property name="meta.media.0.stream.sample_aspect_ratio">1</property>
  <property name="meta.media.0.codec.width">1920</property>
  <property name="meta.media.0.codec.height">1080</property>
  <property name="meta.media.0.codec.rotate">0</property>
  <property name="meta.media.0.codec.frame_rate">29.97</property>
  <property name="meta.media.0.codec.pix_fmt">yuv420p</property>
  <property name="meta.media.0.codec.sample_aspect_ratio">1</property>
  <property name="meta.media.0.codec.colorspace">709</property>
  <property name="meta.media.0.codec.color_trc">1</property>
  <property name="meta.media.0.codec.name">h264</property>
  <property name="meta.media.0.codec.long_name">H.264 / AVC / MPEG-4 AVC / MPEG-4 part 10</property>
  <property name="meta.media.0.codec.bit_rate">4443911</property>
  <property name="meta.attr.0.stream.creation_time.markup">2017-02-15T21:48:31.000000Z</property>
  <property name="meta.attr.0.stream.handler_name.markup">L-SMASH Video Handler</property>
  <property name="meta.attr.0.stream.encoder.markup">AVC Coding</property>
  <property name="meta.attr.major_brand.markup">mp42</property>
  <property name="meta.attr.minor_version.markup">0</property>
  <property name="meta.attr.compatible_brands.markup">mp42mp41isomavc1</property>
  <property name="meta.attr.creation_time.markup">2017-02-15T21:48:31.000000Z</property>
  <property name="seekable">1</property>
  <property name="meta.media.sample_aspect_num">1</property>
  <property name="meta.media.sample_aspect_den">1</property>
  <property name="aspect_ratio">1</property>
  <property name="kdenlive:folderid">5</property>
  <property name="meta.media.frame_rate_num">30000</property>
  <property name="meta.media.frame_rate_den">1001</property>
  <property name="meta.media.colorspace">709</property>
  <property name="meta.media.color_trc">1</property>
  <property name="meta.media.width">1920</property>
  <property name="meta.media.height">1080</property>
  <property name="meta.media.top_field_first">0</property>
  <property name="meta.media.progressive">1</property>
  <property name="kdenlive:file_size">10554728</property>
  <property name="kdenlive:file_hash">37906c243e9b26253feb2c7a69a2ee98</property>
 </producer>
 <producer title="Anonymous Submission" id="42" in="0" out="375">
  <property name="length">376</property>
  <property name="eof">pause</property>
  <property name="resource">/home/stephen/Desktop/New/Shimmering_Particles.mov</property>
  <property name="audio_index">-1</property>
  <property name="video_index">0</property>
  <property name="mute_on_pause">1</property>
  <property name="mlt_service">avformat-novalidate</property>
  <property name="meta.media.nb_streams">1</property>
  <property name="meta.media.0.stream.type">video</property>
  <property name="meta.media.0.stream.frame_rate">29.97</property>
  <property name="meta.media.0.stream.sample_aspect_ratio">1</property>
  <property name="meta.media.0.codec.width">1920</property>
  <property name="meta.media.0.codec.height">1080</property>
  <property name="meta.media.0.codec.rotate">0</property>
  <property name="meta.media.0.codec.frame_rate">2997</property>
  <property name="meta.media.0.codec.pix_fmt">yuvj422p</property>
  <property name="meta.media.0.codec.sample_aspect_ratio">1</property>
  <property name="meta.media.0.codec.colorspace">601</property>
  <property name="meta.media.0.codec.name">mjpeg</property>
  <property name="meta.media.0.codec.long_name">MJPEG (Motion JPEG)</property>
  <property name="meta.media.0.codec.bit_rate">36068820</property>
  <property name="meta.attr.0.stream.creation_time.markup">2012-04-30T03:22:17.000000Z</property>
  <property name="meta.attr.0.stream.language.markup">eng</property>
  <property name="meta.attr.0.stream.handler_name.markup">Apple Alias Data Handler</property>
  <property name="meta.attr.0.stream.encoder.markup">Photo - JPEG</property>
  <property name="meta.attr.major_brand.markup">qt  </property>
  <property name="meta.attr.minor_version.markup">537199360</property>
  <property name="meta.attr.compatible_brands.markup">qt  </property>
  <property name="meta.attr.creation_time.markup">2012-04-30T03:22:17.000000Z</property>
  <property name="seekable">1</property>
  <property name="meta.media.sample_aspect_num">1</property>
  <property name="meta.media.sample_aspect_den">1</property>
  <property name="aspect_ratio">1</property>
  <property name="kdenlive:folderid">5</property>
  <property name="meta.media.frame_rate_num">2997</property>
  <property name="meta.media.frame_rate_den">100</property>
  <property name="meta.media.colorspace">601</property>
  <property name="meta.media.color_trc">2</property>
  <property name="meta.media.width">1920</property>
  <property name="meta.media.height">1080</property>
  <property name="meta.media.top_field_first">0</property>
  <property name="meta.media.progressive">1</property>
  <property name="kdenlive:file_size">67955819</property>
  <property name="kdenlive:file_hash">9a98cac661a26fefc820519e3ecf64e0</property>
  <property name="global_feed">1</property>
 </producer>
 <producer title="Anonymous Submission" id="43" in="0" out="365">
  <property name="length">366</property>
  <property name="eof">pause</property>
  <property name="resource">/home/stephen/Desktop/New/slowmoheadla.mov</property>
  <property name="audio_index">1</property>
  <property name="video_index">0</property>
  <property name="mute_on_pause">1</property>
  <property name="mlt_service">avformat-novalidate</property>
  <property name="meta.media.nb_streams">3</property>
  <property name="meta.media.0.stream.type">video</property>
  <property name="meta.media.0.stream.frame_rate">23.5346</property>
  <property name="meta.media.0.stream.sample_aspect_ratio">0</property>
  <property name="meta.media.0.codec.width">1920</property>
  <property name="meta.media.0.codec.height">1080</property>
  <property name="meta.media.0.codec.rotate">0</property>
  <property name="meta.media.0.codec.frame_rate">24</property>
  <property name="meta.media.0.codec.pix_fmt">yuv420p</property>
  <property name="meta.media.0.codec.sample_aspect_ratio">1</property>
  <property name="meta.media.0.codec.colorspace">709</property>
  <property name="meta.media.0.codec.color_trc">1</property>
  <property name="meta.media.0.codec.name">h264</property>
  <property name="meta.media.0.codec.long_name">H.264 / AVC / MPEG-4 AVC / MPEG-4 part 10</property>
  <property name="meta.media.0.codec.bit_rate">20365386</property>
  <property name="meta.attr.0.stream.creation_time.markup">2016-07-08T17:12:19.000000Z</property>
  <property name="meta.attr.0.stream.handler_name.markup">Core Media Data Handler</property>
  <property name="meta.attr.0.stream.timecode.markup">17:46:40:12</property>
  <property name="meta.media.1.stream.type">audio</property>
  <property name="meta.media.1.codec.sample_fmt">s16</property>
  <property name="meta.media.1.codec.sample_rate">48000</property>
  <property name="meta.media.1.codec.channels">2</property>
  <property name="meta.media.1.codec.name">pcm_s16be</property>
  <property name="meta.media.1.codec.long_name">PCM signed 16-bit big-endian</property>
  <property name="meta.media.1.codec.bit_rate">1536000</property>
  <property name="meta.attr.1.stream.creation_time.markup">2016-07-08T17:12:19.000000Z</property>
  <property name="meta.attr.1.stream.handler_name.markup">Core Media Data Handler</property>
  <property name="meta.attr.1.stream.timecode.markup">17:46:40:12</property>
  <property name="meta.attr.major_brand.markup">qt  </property>
  <property name="meta.attr.minor_version.markup">0</property>
  <property name="meta.attr.compatible_brands.markup">qt  </property>
  <property name="meta.attr.creation_time.markup">2016-07-08T17:12:19.000000Z</property>
  <property name="seekable">1</property>
  <property name="meta.media.sample_aspect_num">1</property>
  <property name="meta.media.sample_aspect_den">1</property>
  <property name="aspect_ratio">1</property>
  <property name="kdenlive:folderid">5</property>
  <property name="meta.media.frame_rate_num">8496</property>
  <property name="meta.media.frame_rate_den">361</property>
  <property name="meta.media.colorspace">709</property>
  <property name="meta.media.color_trc">1</property>
  <property name="meta.media.width">1920</property>
  <property name="meta.media.height">1080</property>
  <property name="meta.media.top_field_first">0</property>
  <property name="meta.media.progressive">1</property>
  <property name="kdenlive:file_size">41244040</property>
  <property name="kdenlive:file_hash">8cacd93a2f674016a12164d49f92d0a3</property>
  <property name="global_feed">1</property>
 </producer>
 <producer title="Anonymous Submission" id="44" in="0" out="442">
  <property name="length">443</property>
  <property name="eof">pause</property>
  <property name="resource">/home/stephen/Desktop/New/Sunset - 8451.mp4</property>
  <property name="audio_index">-1</property>
  <property name="video_index">0</property>
  <property name="mute_on_pause">1</property>
  <property name="mlt_service">avformat-novalidate</property>
  <property name="meta.media.nb_streams">1</property>
  <property name="meta.media.0.stream.type">video</property>
  <property name="meta.media.0.stream.frame_rate">60</property>
  <property name="meta.media.0.stream.sample_aspect_ratio">1</property>
  <property name="meta.media.0.codec.width">2560</property>
  <property name="meta.media.0.codec.height">1440</property>
  <property name="meta.media.0.codec.rotate">0</property>
  <property name="meta.media.0.codec.frame_rate">60</property>
  <property name="meta.media.0.codec.pix_fmt">yuv420p</property>
  <property name="meta.media.0.codec.sample_aspect_ratio">1</property>
  <property name="meta.media.0.codec.colorspace">709</property>
  <property name="meta.media.0.codec.color_trc">1</property>
  <property name="meta.media.0.codec.name">h264</property>
  <property name="meta.media.0.codec.long_name">H.264 / AVC / MPEG-4 AVC / MPEG-4 part 10</property>
  <property name="meta.media.0.codec.bit_rate">7520756</property>
  <property name="meta.attr.0.stream.creation_time.markup">2017-03-20T22:19:22.000000Z</property>
  <property name="meta.attr.0.stream.handler_name.markup">L-SMASH Video Handler</property>
  <property name="meta.attr.0.stream.encoder.markup">AVC Coding</property>
  <property name="meta.attr.major_brand.markup">mp42</property>
  <property name="meta.attr.minor_version.markup">0</property>
  <property name="meta.attr.compatible_brands.markup">mp42mp41isomavc1</property>
  <property name="meta.attr.creation_time.markup">2017-03-20T22:19:22.000000Z</property>
  <property name="seekable">1</property>
  <property name="meta.media.sample_aspect_num">1</property>
  <property name="meta.media.sample_aspect_den">1</property>
  <property name="aspect_ratio">1</property>
  <property name="kdenlive:folderid">5</property>
  <property name="meta.media.frame_rate_num">60</property>
  <property name="meta.media.frame_rate_den">1</property>
  <property name="meta.media.colorspace">709</property>
  <property name="meta.media.color_trc">1</property>
  <property name="meta.media.width">2560</property>
  <property name="meta.media.height">1440</property>
  <property name="meta.media.top_field_first">0</property>
  <property name="meta.media.progressive">1</property>
  <property name="kdenlive:file_size">16670171</property>
  <property name="kdenlive:file_hash">7b0e7e2c5b7cac39918c20cb7e079d8b</property>
  <property name="global_feed">1</property>
 </producer>
 <producer title="Anonymous Submission" id="45" in="0" out="1975">
  <property name="length">1976</property>
  <property name="eof">pause</property>
  <property name="resource">/home/stephen/Desktop/New/Water_Close_Up_H264_Videvo.mp4</property>
  <property name="audio_index">-1</property>
  <property name="video_index">0</property>
  <property name="mute_on_pause">1</property>
  <property name="mlt_service">avformat-novalidate</property>
  <property name="meta.media.nb_streams">1</property>
  <property name="meta.media.0.stream.type">video</property>
  <property name="meta.media.0.stream.frame_rate">23.976</property>
  <property name="meta.media.0.stream.sample_aspect_ratio">0</property>
  <property name="meta.media.0.codec.width">1920</property>
  <property name="meta.media.0.codec.height">1080</property>
  <property name="meta.media.0.codec.rotate">0</property>
  <property name="meta.media.0.codec.frame_rate">23.976</property>
  <property name="meta.media.0.codec.pix_fmt">yuv420p</property>
  <property name="meta.media.0.codec.sample_aspect_ratio">1</property>
  <property name="meta.media.0.codec.colorspace">709</property>
  <property name="meta.media.0.codec.name">h264</property>
  <property name="meta.media.0.codec.long_name">H.264 / AVC / MPEG-4 AVC / MPEG-4 part 10</property>
  <property name="meta.media.0.codec.bit_rate">7199440</property>
  <property name="meta.attr.0.stream.creation_time.markup">2014-12-01T20:51:14.000000Z</property>
  <property name="meta.attr.0.stream.language.markup">eng</property>
  <property name="meta.attr.0.stream.handler_name.markup">Mainconcept MP4 Video Media Handler</property>
  <property name="meta.attr.0.stream.encoder.markup">AVC Coding</property>
  <property name="meta.attr.major_brand.markup">mp42</property>
  <property name="meta.attr.minor_version.markup">0</property>
  <property name="meta.attr.compatible_brands.markup">mp42mp41</property>
  <property name="meta.attr.creation_time.markup">2014-12-01T20:51:14.000000Z</property>
  <property name="seekable">1</property>
  <property name="meta.media.sample_aspect_num">1</property>
  <property name="meta.media.sample_aspect_den">1</property>
  <property name="aspect_ratio">1</property>
  <property name="kdenlive:folderid">5</property>
  <property name="meta.media.frame_rate_num">2997</property>
  <property name="meta.media.frame_rate_den">125</property>
  <property name="meta.media.colorspace">709</property>
  <property name="meta.media.color_trc">2</property>
  <property name="meta.media.width">1920</property>
  <property name="meta.media.height">1080</property>
  <property name="meta.media.top_field_first">0</property>
  <property name="meta.media.progressive">1</property>
  <property name="kdenlive:file_size">71155237</property>
  <property name="kdenlive:file_hash">7c447da7eb4a48a2f520cd81e61f9bcf</property>
  <property name="global_feed">1</property>
 </producer>
 <producer id="46" in="0" out="138">
  <property name="length">139</property>
  <property name="eof">pause</property>
  <property name="resource">/home/stephen/Desktop/Stock video/overlays/title.png</property>
  <property name="ttl">25</property>
  <property name="aspect_ratio">1</property>
  <property name="progressive">1</property>
  <property name="seekable">1</property>
  <property name="meta.media.width">1600</property>
  <property name="meta.media.height">900</property>
  <property name="mlt_service">qimage</property>
  <property name="kdenlive:folderid">6</property>
  <property name="kdenlive:duration">125</property>
  <property name="kdenlive:file_size">77266</property>
  <property name="kdenlive:file_hash">fbb3640a15e5b9ceb3f7e2c03753628d</property>
 </producer>
 <producer id="47" in="0" out="124">
  <property name="length">125</property>
  <property name="eof">pause</property>
  <property name="resource">/home/stephen/Desktop/Stock video/overlays/constant.png</property>
  <property name="ttl">25</property>
  <property name="aspect_ratio">1</property>
  <property name="progressive">1</property>
  <property name="seekable">1</property>
  <property name="meta.media.width">1600</property>
  <property name="meta.media.height">900</property>
  <property name="mlt_service">qimage</property>
  <property name="kdenlive:folderid">6</property>
  <property name="kdenlive:duration">125</property>
  <property name="kdenlive:file_size">27435</property>
  <property name="kdenlive:file_hash">a8fccc9c3faf490ba4ab00c11f742ab6</property>
 </producer>
 <producer id="48" in="0" out="124">
  <property name="length">125</property>
  <property name="eof">pause</property>
  <property name="resource">/home/stephen/Desktop/Stock video/overlays/s1.png</property>
  <property name="ttl">25</property>
  <property name="aspect_ratio">1</property>
  <property name="progressive">1</property>
  <property name="seekable">1</property>
  <property name="meta.media.width">1600</property>
  <property name="meta.media.height">900</property>
  <property name="mlt_service">qimage</property>
  <property name="kdenlive:folderid">6</property>
  <property name="kdenlive:duration">125</property>
  <property name="kdenlive:file_size">55493</property>
  <property name="kdenlive:file_hash">9da2e0b3b935880ebfdfac6bfe0ac0c6</property>
 </producer>
 <producer id="49" in="0" out="124">
  <property name="length">125</property>
  <property name="eof">pause</property>
  <property name="resource">/home/stephen/Desktop/Stock video/overlays/s2.png</property>
  <property name="ttl">25</property>
  <property name="aspect_ratio">1</property>
  <property name="progressive">1</property>
  <property name="seekable">1</property>
  <property name="meta.media.width">1600</property>
  <property name="meta.media.height">900</property>
  <property name="mlt_service">qimage</property>
  <property name="kdenlive:folderid">6</property>
  <property name="kdenlive:duration">125</property>
  <property name="kdenlive:file_size">58439</property>
  <property name="kdenlive:file_hash">1c96e2220c3f104279aadfc3c7ccc05c</property>
 </producer>
 <producer id="50" in="0" out="124">
  <property name="length">125</property>
  <property name="eof">pause</property>
  <property name="resource">/home/stephen/Desktop/Stock video/overlays/s3.png</property>
  <property name="ttl">25</property>
  <property name="aspect_ratio">1</property>
  <property name="progressive">1</property>
  <property name="seekable">1</property>
  <property name="meta.media.width">1600</property>
  <property name="meta.media.height">900</property>
  <property name="mlt_service">qimage</property>
  <property name="kdenlive:folderid">6</property>
  <property name="kdenlive:duration">125</property>
  <property name="kdenlive:file_size">39477</property>
  <property name="kdenlive:file_hash">1306e27362b1e567bca4c3e1f784ab9b</property>
 </producer>
 <producer id="51" in="0" out="124">
  <property name="length">125</property>
  <property name="eof">pause</property>
  <property name="resource">/home/stephen/Desktop/Stock video/overlays/s4.png</property>
  <property name="ttl">25</property>
  <property name="aspect_ratio">1</property>
  <property name="progressive">1</property>
  <property name="seekable">1</property>
  <property name="meta.media.width">1600</property>
  <property name="meta.media.height">900</property>
  <property name="mlt_service">qimage</property>
  <property name="kdenlive:folderid">6</property>
  <property name="kdenlive:duration">125</property>
  <property name="kdenlive:file_size">24548</property>
  <property name="kdenlive:file_hash">c73d31030da4e0153fd9765514503968</property>
 </producer>
 <producer id="52" in="0" out="124">
  <property name="length">125</property>
  <property name="eof">pause</property>
  <property name="resource">/home/stephen/Desktop/Stock video/overlays/s5.png</property>
  <property name="ttl">25</property>
  <property name="aspect_ratio">1</property>
  <property name="progressive">1</property>
  <property name="seekable">1</property>
  <property name="meta.media.width">1600</property>
  <property name="meta.media.height">900</property>
  <property name="mlt_service">qimage</property>
  <property name="kdenlive:folderid">6</property>
  <property name="kdenlive:duration">125</property>
  <property name="kdenlive:file_size">62999</property>
  <property name="kdenlive:file_hash">df47d86a7fad05be38bfc2ae32d2a84f</property>
 </producer>
 <producer id="53" in="0" out="124">
  <property name="length">125</property>
  <property name="eof">pause</property>
  <property name="resource">/home/stephen/Desktop/Stock video/overlays/s6.png</property>
  <property name="ttl">25</property>
  <property name="aspect_ratio">1</property>
  <property name="progressive">1</property>
  <property name="seekable">1</property>
  <property name="meta.media.width">1600</property>
  <property name="meta.media.height">900</property>
  <property name="mlt_service">qimage</property>
  <property name="kdenlive:folderid">6</property>
  <property name="kdenlive:duration">125</property>
  <property name="kdenlive:file_size">45273</property>
  <property name="kdenlive:file_hash">f9e1f7e655c43591e799616d7c6621d2</property>
 </producer>
 <producer id="54" in="0" out="124">
  <property name="length">125</property>
  <property name="eof">pause</property>
  <property name="resource">/home/stephen/Desktop/Stock video/overlays/s7.png</property>
  <property name="ttl">25</property>
  <property name="aspect_ratio">1</property>
  <property name="progressive">1</property>
  <property name="seekable">1</property>
  <property name="meta.media.width">1600</property>
  <property name="meta.media.height">900</property>
  <property name="mlt_service">qimage</property>
  <property name="kdenlive:folderid">6</property>
  <property name="kdenlive:duration">125</property>
  <property name="kdenlive:file_size">207292</property>
  <property name="kdenlive:file_hash">32c0c19df726681de0c6dde479c2554e</property>
 </producer>
 <producer id="55" in="0" out="124">
  <property name="length">125</property>
  <property name="eof">pause</property>
  <property name="resource">/home/stephen/Desktop/Stock video/overlays/s8.png</property>
  <property name="ttl">25</property>
  <property name="aspect_ratio">1</property>
  <property name="progressive">1</property>
  <property name="seekable">1</property>
  <property name="meta.media.width">1600</property>
  <property name="meta.media.height">900</property>
  <property name="mlt_service">qimage</property>
  <property name="kdenlive:folderid">6</property>
  <property name="kdenlive:duration">125</property>
  <property name="kdenlive:file_size">543648</property>
  <property name="kdenlive:file_hash">97d93e432feae2bf81b88b9a9a0d526e</property>
 </producer>
 <producer id="56" in="0" out="124">
  <property name="length">125</property>
  <property name="eof">pause</property>
  <property name="resource">/home/stephen/Desktop/Stock video/overlays/s9.png</property>
  <property name="ttl">25</property>
  <property name="aspect_ratio">1</property>
  <property name="progressive">1</property>
  <property name="seekable">1</property>
  <property name="meta.media.width">1600</property>
  <property name="meta.media.height">900</property>
  <property name="mlt_service">qimage</property>
  <property name="kdenlive:folderid">6</property>
  <property name="kdenlive:duration">125</property>
  <property name="kdenlive:file_size">45018</property>
  <property name="kdenlive:file_hash">c17086548b4210ca5d773f9d4910971f</property>
 </producer>
 <playlist id="main bin">
  <property name="kdenlive:folder.-1.1">Overlays</property>
  <property name="kdenlive:docproperties.audiotargettrack">1</property>
  <property name="kdenlive:docproperties.decimalPoint">.</property>
  <property name="kdenlive:docproperties.dirtypreviewchunks"/>
  <property name="kdenlive:docproperties.disablepreview">0</property>
  <property name="kdenlive:docproperties.documentid">1525456068433</property>
  <property name="kdenlive:docproperties.enableproxy">0</property>
  <property name="kdenlive:docproperties.generateimageproxy">0</property>
  <property name="kdenlive:docproperties.generateproxy">0</property>
  <property name="kdenlive:docproperties.kdenliveversion">18.04.0</property>
  <property name="kdenlive:docproperties.position">2514</property>
  <property name="kdenlive:docproperties.previewchunks"/>
  <property name="kdenlive:docproperties.previewextension"/>
  <property name="kdenlive:docproperties.previewparameters"/>
  <property name="kdenlive:docproperties.profile">atsc_1080p_25</property>
  <property name="kdenlive:docproperties.proxyextension">mkv</property>
  <property name="kdenlive:docproperties.proxyimageminsize">2000</property>
  <property name="kdenlive:docproperties.proxyminsize">1000</property>
  <property name="kdenlive:docproperties.proxyparams">-vf yadif,scale=960:-2 -qscale 3 -vcodec mjpeg -acodec pcm_s16le</property>
  <property name="kdenlive:docproperties.storagefolder">/home/stephen/Desktop/NSP_Video/1525456068433</property>
  <property name="kdenlive:docproperties.version">0.96</property>
  <property name="kdenlive:docproperties.verticalzoom">1</property>
  <property name="kdenlive:docproperties.videotargettrack">2</property>
  <property name="kdenlive:docproperties.zonein">0</property>
  <property name="kdenlive:docproperties.zoneout">100</property>
  <property name="kdenlive:docproperties.zoom">7</property>
  <property name="kdenlive:documentnotes"/>
  <property name="kdenlive:clipgroups"/>
  <property name="kdenlive:folder.1.2">Folder</property>
  <property name="kdenlive:folder.-1.3">Audio</property>
  <property name="kdenlive:folder.3.4">Folder</property>
  <property name="kdenlive:folder.-1.5">Clips</property>
  <property name="kdenlive:docproperties.renderaudioquality">192</property>
  <property name="kdenlive:docproperties.rendercategory">Generic (HD for web, mobile devices...)</property>
  <property name="kdenlive:docproperties.renderendguide">-1</property>
  <property name="kdenlive:docproperties.renderexportaudio">0</property>
  <property name="kdenlive:docproperties.renderguide">0</property>
  <property name="kdenlive:docproperties.renderplay">0</property>
  <property name="kdenlive:docproperties.renderprofile">MP4 - the dominating format (H264/AAC)</property>
  <property name="kdenlive:docproperties.renderquality">30</property>
  <property name="kdenlive:docproperties.renderratio">0</property>
  <property name="kdenlive:docproperties.renderrescale">1</property>
  <property name="kdenlive:docproperties.renderrescaleheight">315</property>
  <property name="kdenlive:docproperties.renderrescalewidth">560</property>
  <property name="kdenlive:docproperties.renderscanning">0</property>
  <property name="kdenlive:docproperties.renderspeed">2</property>
  <property name="kdenlive:docproperties.renderstartguide">-1</property>
  <property name="kdenlive:docproperties.rendertcoverlay">0</property>
  <property name="kdenlive:docproperties.rendertctype">0</property>
  <property name="kdenlive:docproperties.rendertwopass">0</property>
  <property name="kdenlive:docproperties.renderurl">/home/stephen/Desktop/NSP_Video/nsp_test2.mp4</property>
  <property name="kdenlive:docproperties.renderzone">0</property>
  <property name="kdenlive:folder.-1.6">NewOverlays</property>
  <property name="xml_retain">1</property>
  <entry producer="1" in="0" out="124"/>
  <entry producer="2" in="0" out="124"/>
  <entry producer="3" in="0" out="124"/>
  <entry producer="4" in="0" out="124"/>
  <entry producer="5" in="0" out="124"/>
  <entry producer="6" in="0" out="124"/>
  <entry producer="7" in="0" out="124"/>
  <entry producer="8" in="0" out="124"/>
  <entry producer="9" in="0" out="124"/>
  <entry producer="10" in="0" out="124"/>
  <entry producer="11" in="0" out="124"/>
  <entry producer="12" in="0" out="5335"/>
  <entry producer="13" in="0" out="5883"/>
  <entry producer="14" in="0" out="4591"/>
  <entry producer="15" in="0" out="1669"/>
  <entry producer="16" in="0" out="376"/>
  <entry producer="17" in="0" out="375"/>
  <entry producer="18" in="0" out="751"/>
  <entry producer="19" in="0" out="753"/>
  <entry producer="20" in="0" out="316"/>
  <entry producer="21" in="0" out="388"/>
  <entry producer="22" in="0" out="283"/>
  <entry producer="23" in="0" out="408"/>
  <entry producer="24" in="0" out="339"/>
  <entry producer="25" in="0" out="499"/>
  <entry producer="26" in="0" out="359"/>
  <entry producer="27" in="0" out="4379"/>
  <entry producer="28" in="0" out="2944"/>
  <entry producer="29" in="0" out="300"/>
  <entry producer="30" in="0" out="899"/>
  <entry producer="31" in="0" out="434"/>
  <entry producer="32" in="0" out="675"/>
  <entry producer="33" in="0" out="407"/>
  <entry producer="34" in="0" out="1809"/>
  <entry producer="35" in="0" out="703"/>
  <entry producer="36" in="0" out="312"/>
  <entry producer="37" in="0" out="435"/>
  <entry producer="38" in="0" out="499"/>
  <entry producer="39" in="0" out="213"/>
  <entry producer="40" in="0" out="251"/>
  <entry producer="41" in="0" out="474"/>
  <entry producer="42" in="0" out="375"/>
  <entry producer="43" in="0" out="365"/>
  <entry producer="44" in="0" out="442"/>
  <entry producer="45" in="0" out="1975"/>
  <entry producer="46" in="0" out="124"/>
  <entry producer="47" in="0" out="124"/>
  <entry producer="48" in="0" out="124"/>
  <entry producer="49" in="0" out="124"/>
  <entry producer="50" in="0" out="124"/>
  <entry producer="51" in="0" out="124"/>
  <entry producer="52" in="0" out="124"/>
  <entry producer="53" in="0" out="124"/>
  <entry producer="54" in="0" out="124"/>
  <entry producer="55" in="0" out="124"/>
  <entry producer="56" in="0" out="124"/>
 </playlist>
 <producer id="black" in="0" out="500">
  <property name="length">15000</property>
  <property name="eof">pause</property>
  <property name="resource">black</property>
  <property name="aspect_ratio">0</property>
  <property name="mlt_service">colour</property>
  <property name="set.test_audio">0</property>
 </producer>
 <playlist id="black_track">
  <entry producer="black" in="0" out="2514"/>
 </playlist>
 <producer title="Anonymous Submission" id="14_playlist1" in="0" out="4591">
  <property name="length">4592</property>
  <property name="eof">pause</property>
  <property name="resource">/home/stephen/Dropbox/Music/Royalty- Free Music/Kevin McCloud - Celtic Theme.mp3</property>
  <property name="audio_index">0</property>
  <property name="video_index">-1</property>
  <property name="mute_on_pause">1</property>
  <property name="mlt_service">avformat-novalidate</property>
  <property name="seekable">1</property>
  <property name="kdenlive:folderid">3</property>
  <property name="kdenlive:file_size">2775627</property>
  <property name="kdenlive:file_hash">aeb4d46f9beeb872db3826260e6fb154</property>
  <property name="global_feed">1</property>
  <property name="xml">was here</property>
  <property name="meta.media.nb_streams">1</property>
  <property name="meta.media.0.stream.type">audio</property>
  <property name="meta.media.0.codec.sample_fmt">s16p</property>
  <property name="meta.media.0.codec.sample_rate">44100</property>
  <property name="meta.media.0.codec.channels">2</property>
  <property name="meta.media.0.codec.name">mp3</property>
  <property name="meta.media.0.codec.long_name">MP3 (MPEG audio layer 3)</property>
  <property name="meta.media.0.codec.bit_rate">120892</property>
  <property name="meta.attr.0.stream.encoder.markup">Lavc56.26</property>
  <property name="meta.attr.major_brand.markup">isom</property>
  <property name="meta.attr.minor_version.markup">512</property>
  <property name="meta.attr.compatible_brands.markup">isomiso2mp41</property>
  <property name="meta.attr.encoder.markup">Lavf56.25.101</property>
 </producer>
 <playlist id="playlist1">
  <property name="kdenlive:audio_track">1</property>
  <property name="kdenlive:track_name">Audio 1</property>
  <entry producer="14_playlist1" in="0" out="2513">
   <filter id="loudness">
    <property name="program">-23.00</property>
    <property name="mlt_service">loudness</property>
    <property name="kdenlive_id">loudness</property>
    <property name="tag">loudness</property>
    <property name="kdenlive_ix">1</property>
   </filter>
   <filter id="audiolevel">
    <property name="iec_scale">1</property>
    <property name="mlt_service">audiolevel</property>
    <property name="kdenlive_id">audiolevel</property>
    <property name="tag">audiolevel</property>
    <property name="kdenlive_ix">2</property>
   </filter>
  </entry>
 </playlist>
 <producer title="Anonymous Submission" id="39_playlist2" in="0" out="213">
  <property name="length">214</property>
  <property name="eof">pause</property>
  <property name="resource">/home/stephen/Desktop/New/738939808.mp4</property>
  <property name="audio_index">-1</property>
  <property name="video_index">0</property>
  <property name="mute_on_pause">1</property>
  <property name="mlt_service">avformat-novalidate</property>
  <property name="seekable">1</property>
  <property name="aspect_ratio">1</property>
  <property name="kdenlive:folderid">5</property>
  <property name="kdenlive:file_size">4724039</property>
  <property name="kdenlive:file_hash">32c07f8aa1b2610cfc7cb1626523dde9</property>
  <property name="global_feed">1</property>
  <property name="xml">was here</property>
  <property name="meta.media.nb_streams">1</property>
  <property name="meta.media.0.stream.type">video</property>
  <property name="meta.media.0.stream.frame_rate">30</property>
  <property name="meta.media.0.stream.sample_aspect_ratio">1</property>
  <property name="meta.media.0.codec.width">1920</property>
  <property name="meta.media.0.codec.height">1080</property>
  <property name="meta.media.0.codec.rotate">0</property>
  <property name="meta.media.0.codec.frame_rate">30</property>
  <property name="meta.media.0.codec.pix_fmt">yuv420p</property>
  <property name="meta.media.0.codec.sample_aspect_ratio">1</property>
  <property name="meta.media.0.codec.colorspace">709</property>
  <property name="meta.media.0.codec.color_trc">1</property>
  <property name="meta.media.0.codec.name">h264</property>
  <property name="meta.media.0.codec.long_name">H.264 / AVC / MPEG-4 AVC / MPEG-4 part 10</property>
  <property name="meta.media.0.codec.bit_rate">4407543</property>
  <property name="meta.attr.0.stream.creation_time.markup">2017-04-24T08:48:55.000000Z</property>
  <property name="meta.attr.0.stream.handler_name.markup">L-SMASH Video Handler</property>
  <property name="meta.attr.0.stream.encoder.markup">AVC Coding</property>
  <property name="meta.attr.major_brand.markup">mp42</property>
  <property name="meta.attr.minor_version.markup">0</property>
  <property name="meta.attr.compatible_brands.markup">mp42mp41isomavc1</property>
  <property name="meta.attr.creation_time.markup">2017-04-24T08:48:55.000000Z</property>
  <property name="meta.media.sample_aspect_num">1</property>
  <property name="meta.media.sample_aspect_den">1</property>
  <property name="meta.media.frame_rate_num">30</property>
  <property name="meta.media.frame_rate_den">1</property>
  <property name="meta.media.colorspace">709</property>
  <property name="meta.media.color_trc">1</property>
  <property name="meta.media.width">1920</property>
  <property name="meta.media.height">1080</property>
  <property name="meta.media.top_field_first">0</property>
  <property name="meta.media.progressive">1</property>
 </producer>
 <producer title="Anonymous Submission" id="43_playlist2" in="0" out="365">
  <property name="length">366</property>
  <property name="eof">pause</property>
  <property name="resource">/home/stephen/Desktop/New/slowmoheadla.mov</property>
  <property name="audio_index">1</property>
  <property name="video_index">0</property>
  <property name="mute_on_pause">1</property>
  <property name="mlt_service">avformat-novalidate</property>
  <property name="seekable">1</property>
  <property name="aspect_ratio">1</property>
  <property name="kdenlive:folderid">5</property>
  <property name="kdenlive:file_size">41244040</property>
  <property name="kdenlive:file_hash">8cacd93a2f674016a12164d49f92d0a3</property>
  <property name="global_feed">1</property>
  <property name="xml">was here</property>
  <property name="meta.media.nb_streams">3</property>
  <property name="meta.media.0.stream.type">video</property>
  <property name="meta.media.0.stream.frame_rate">23.5346</property>
  <property name="meta.media.0.stream.sample_aspect_ratio">0</property>
  <property name="meta.media.0.codec.width">1920</property>
  <property name="meta.media.0.codec.height">1080</property>
  <property name="meta.media.0.codec.rotate">0</property>
  <property name="meta.media.0.codec.frame_rate">24</property>
  <property name="meta.media.0.codec.pix_fmt">yuv420p</property>
  <property name="meta.media.0.codec.sample_aspect_ratio">1</property>
  <property name="meta.media.0.codec.colorspace">709</property>
  <property name="meta.media.0.codec.color_trc">1</property>
  <property name="meta.media.0.codec.name">h264</property>
  <property name="meta.media.0.codec.long_name">H.264 / AVC / MPEG-4 AVC / MPEG-4 part 10</property>
  <property name="meta.media.0.codec.bit_rate">20365386</property>
  <property name="meta.attr.0.stream.creation_time.markup">2016-07-08T17:12:19.000000Z</property>
  <property name="meta.attr.0.stream.handler_name.markup">Core Media Data Handler</property>
  <property name="meta.attr.0.stream.timecode.markup">17:46:40:12</property>
  <property name="meta.media.1.stream.type">audio</property>
  <property name="meta.media.1.codec.sample_fmt">s16</property>
  <property name="meta.media.1.codec.sample_rate">48000</property>
  <property name="meta.media.1.codec.channels">2</property>
  <property name="meta.media.1.codec.name">pcm_s16be</property>
  <property name="meta.media.1.codec.long_name">PCM signed 16-bit big-endian</property>
  <property name="meta.media.1.codec.bit_rate">1536000</property>
  <property name="meta.attr.1.stream.creation_time.markup">2016-07-08T17:12:19.000000Z</property>
  <property name="meta.attr.1.stream.handler_name.markup">Core Media Data Handler</property>
  <property name="meta.attr.1.stream.timecode.markup">17:46:40:12</property>
  <property name="meta.attr.major_brand.markup">qt  </property>
  <property name="meta.attr.minor_version.markup">0</property>
  <property name="meta.attr.compatible_brands.markup">qt  </property>
  <property name="meta.attr.creation_time.markup">2016-07-08T17:12:19.000000Z</property>
  <property name="meta.media.sample_aspect_num">1</property>
  <property name="meta.media.sample_aspect_den">1</property>
  <property name="meta.media.frame_rate_num">8496</property>
  <property name="meta.media.frame_rate_den">361</property>
  <property name="meta.media.colorspace">709</property>
  <property name="meta.media.color_trc">1</property>
  <property name="meta.media.width">1920</property>
  <property name="meta.media.height">1080</property>
  <property name="meta.media.top_field_first">0</property>
  <property name="meta.media.progressive">1</property>
 </producer>
 <producer title="Anonymous Submission" id="15_playlist2" in="0" out="1669">
  <property name="length">1670</property>
  <property name="eof">pause</property>
  <property name="resource">/home/stephen/Desktop/Stock video/car-leaves.mp4</property>
  <property name="audio_index">1</property>
  <property name="video_index">0</property>
  <property name="mute_on_pause">1</property>
  <property name="mlt_service">avformat-novalidate</property>
  <property name="seekable">1</property>
  <property name="aspect_ratio">1</property>
  <property name="kdenlive:folderid">5</property>
  <property name="kdenlive:file_size">30716193</property>
  <property name="kdenlive:file_hash">1edc2030f7c4dfc598334f4ecffbd0ac</property>
  <property name="global_feed">1</property>
  <property name="xml">was here</property>
  <property name="meta.media.nb_streams">2</property>
  <property name="meta.media.0.stream.type">video</property>
  <property name="meta.media.0.stream.frame_rate">29.97</property>
  <property name="meta.media.0.stream.sample_aspect_ratio">1</property>
  <property name="meta.media.0.codec.width">1920</property>
  <property name="meta.media.0.codec.height">1080</property>
  <property name="meta.media.0.codec.rotate">0</property>
  <property name="meta.media.0.codec.frame_rate">29.97</property>
  <property name="meta.media.0.codec.pix_fmt">yuv420p</property>
  <property name="meta.media.0.codec.sample_aspect_ratio">1</property>
  <property name="meta.media.0.codec.colorspace">709</property>
  <property name="meta.media.0.codec.color_trc">1</property>
  <property name="meta.media.0.codec.name">h264</property>
  <property name="meta.media.0.codec.long_name">H.264 / AVC / MPEG-4 AVC / MPEG-4 part 10</property>
  <property name="meta.media.0.codec.bit_rate">3419433</property>
  <property name="meta.attr.0.stream.creation_time.markup">2015-03-07T11:13:46.000000Z</property>
  <property name="meta.attr.0.stream.handler_name.markup">L-SMASH Video Handler</property>
  <property name="meta.attr.0.stream.encoder.markup">AVC Coding</property>
  <property name="meta.media.1.stream.type">audio</property>
  <property name="meta.media.1.codec.sample_fmt">fltp</property>
  <property name="meta.media.1.codec.sample_rate">48000</property>
  <property name="meta.media.1.codec.channels">2</property>
  <property name="meta.media.1.codec.name">aac</property>
  <property name="meta.media.1.codec.long_name">AAC (Advanced Audio Coding)</property>
  <property name="meta.media.1.codec.bit_rate">256000</property>
  <property name="meta.attr.1.stream.creation_time.markup">2015-03-07T11:13:46.000000Z</property>
  <property name="meta.attr.1.stream.handler_name.markup">L-SMASH Audio Handler</property>
  <property name="meta.attr.major_brand.markup">mp42</property>
  <property name="meta.attr.minor_version.markup">0</property>
  <property name="meta.attr.compatible_brands.markup">mp42mp41isomavc1</property>
  <property name="meta.attr.creation_time.markup">2015-03-07T11:13:46.000000Z</property>
  <property name="meta.media.sample_aspect_num">1</property>
  <property name="meta.media.sample_aspect_den">1</property>
  <property name="meta.media.frame_rate_num">30000</property>
  <property name="meta.media.frame_rate_den">1001</property>
  <property name="meta.media.colorspace">709</property>
  <property name="meta.media.color_trc">1</property>
  <property name="meta.media.width">1920</property>
  <property name="meta.media.height">1080</property>
  <property name="meta.media.top_field_first">0</property>
  <property name="meta.media.progressive">1</property>
 </producer>
 <producer title="Anonymous Submission" id="20_playlist2" in="0" out="316">
  <property name="length">317</property>
  <property name="eof">pause</property>
  <property name="resource">/home/stephen/Desktop/Stock video/runner.mp4</property>
  <property name="audio_index">-1</property>
  <property name="video_index">0</property>
  <property name="mute_on_pause">1</property>
  <property name="mlt_service">avformat-novalidate</property>
  <property name="seekable">1</property>
  <property name="aspect_ratio">1</property>
  <property name="kdenlive:folderid">5</property>
  <property name="kdenlive:file_size">7124950</property>
  <property name="kdenlive:file_hash">2cd19aa9891ca1a2e70abcf939233d4d</property>
  <property name="global_feed">1</property>
  <property name="xml">was here</property>
  <property name="meta.media.nb_streams">1</property>
  <property name="meta.media.0.stream.type">video</property>
  <property name="meta.media.0.stream.frame_rate">25</property>
  <property name="meta.media.0.stream.sample_aspect_ratio">1</property>
  <property name="meta.media.0.codec.width">1920</property>
  <property name="meta.media.0.codec.height">1080</property>
  <property name="meta.media.0.codec.rotate">0</property>
  <property name="meta.media.0.codec.frame_rate">25</property>
  <property name="meta.media.0.codec.pix_fmt">yuv420p</property>
  <property name="meta.media.0.codec.sample_aspect_ratio">1</property>
  <property name="meta.media.0.codec.colorspace">709</property>
  <property name="meta.media.0.codec.color_trc">1</property>
  <property name="meta.media.0.codec.name">h264</property>
  <property name="meta.media.0.codec.long_name">H.264 / AVC / MPEG-4 AVC / MPEG-4 part 10</property>
  <property name="meta.media.0.codec.bit_rate">4492009</property>
  <property name="meta.attr.0.stream.creation_time.markup">2017-03-30T11:24:10.000000Z</property>
  <property name="meta.attr.0.stream.handler_name.markup">L-SMASH Video Handler</property>
  <property name="meta.attr.0.stream.encoder.markup">AVC Coding</property>
  <property name="meta.attr.major_brand.markup">mp42</property>
  <property name="meta.attr.minor_version.markup">0</property>
  <property name="meta.attr.compatible_brands.markup">mp42mp41isomavc1</property>
  <property name="meta.attr.creation_time.markup">2017-03-30T11:24:10.000000Z</property>
  <property name="meta.media.sample_aspect_num">1</property>
  <property name="meta.media.sample_aspect_den">1</property>
  <property name="meta.media.frame_rate_num">25</property>
  <property name="meta.media.frame_rate_den">1</property>
  <property name="meta.media.colorspace">709</property>
  <property name="meta.media.color_trc">1</property>
  <property name="meta.media.width">1920</property>
  <property name="meta.media.height">1080</property>
  <property name="meta.media.top_field_first">0</property>
  <property name="meta.media.progressive">1</property>
 </producer>
 <producer title="Anonymous Submission" id="37_playlist2" in="0" out="435">
  <property name="length">436</property>
  <property name="eof">pause</property>
  <property name="resource">/home/stephen/Desktop/New/722777471.mp4</property>
  <property name="audio_index">-1</property>
  <property name="video_index">0</property>
  <property name="mute_on_pause">1</property>
  <property name="mlt_service">avformat-novalidate</property>
  <property name="seekable">1</property>
  <property name="aspect_ratio">1</property>
  <property name="kdenlive:folderid">5</property>
  <property name="kdenlive:file_size">9770858</property>
  <property name="kdenlive:file_hash">c11d03cea4abfd03edf8e0e9a85e1d43</property>
  <property name="global_feed">1</property>
  <property name="xml">was here</property>
  <property name="meta.media.nb_streams">1</property>
  <property name="meta.media.0.stream.type">video</property>
  <property name="meta.media.0.stream.frame_rate">30</property>
  <property name="meta.media.0.stream.sample_aspect_ratio">1</property>
  <property name="meta.media.0.codec.width">1920</property>
  <property name="meta.media.0.codec.height">1080</property>
  <property name="meta.media.0.codec.rotate">0</property>
  <property name="meta.media.0.codec.frame_rate">30</property>
  <property name="meta.media.0.codec.pix_fmt">yuv420p</property>
  <property name="meta.media.0.codec.sample_aspect_ratio">1</property>
  <property name="meta.media.0.codec.colorspace">709</property>
  <property name="meta.media.0.codec.color_trc">1</property>
  <property name="meta.media.0.codec.name">h264</property>
  <property name="meta.media.0.codec.long_name">H.264 / AVC / MPEG-4 AVC / MPEG-4 part 10</property>
  <property name="meta.media.0.codec.bit_rate">4481533</property>
  <property name="meta.attr.0.stream.creation_time.markup">2017-03-30T11:22:21.000000Z</property>
  <property name="meta.attr.0.stream.handler_name.markup">L-SMASH Video Handler</property>
  <property name="meta.attr.0.stream.encoder.markup">AVC Coding</property>
  <property name="meta.attr.major_brand.markup">mp42</property>
  <property name="meta.attr.minor_version.markup">0</property>
  <property name="meta.attr.compatible_brands.markup">mp42mp41isomavc1</property>
  <property name="meta.attr.creation_time.markup">2017-03-30T11:22:21.000000Z</property>
  <property name="meta.media.sample_aspect_num">1</property>
  <property name="meta.media.sample_aspect_den">1</property>
  <property name="meta.media.frame_rate_num">30</property>
  <property name="meta.media.frame_rate_den">1</property>
  <property name="meta.media.colorspace">709</property>
  <property name="meta.media.color_trc">1</property>
  <property name="meta.media.width">1920</property>
  <property name="meta.media.height">1080</property>
  <property name="meta.media.top_field_first">0</property>
  <property name="meta.media.progressive">1</property>
 </producer>
 <producer title="Anonymous Submission" id="31_playlist2" in="0" out="434">
  <property name="length">435</property>
  <property name="eof">pause</property>
  <property name="resource">/home/stephen/Desktop/Stock video/walking.mp4</property>
  <property name="audio_index">1</property>
  <property name="video_index">0</property>
  <property name="mute_on_pause">1</property>
  <property name="mlt_service">avformat-novalidate</property>
  <property name="seekable">1</property>
  <property name="aspect_ratio">1</property>
  <property name="kdenlive:folderid">5</property>
  <property name="kdenlive:file_size">11370487</property>
  <property name="kdenlive:file_hash">b74bc9249ed7aa30b06c284888e74515</property>
  <property name="global_feed">1</property>
  <property name="xml">was here</property>
  <property name="meta.media.nb_streams">2</property>
  <property name="meta.media.0.stream.type">video</property>
  <property name="meta.media.0.stream.frame_rate">29.97</property>
  <property name="meta.media.0.stream.sample_aspect_ratio">1</property>
  <property name="meta.media.0.codec.width">1920</property>
  <property name="meta.media.0.codec.height">1080</property>
  <property name="meta.media.0.codec.rotate">0</property>
  <property name="meta.media.0.codec.frame_rate">29.97</property>
  <property name="meta.media.0.codec.pix_fmt">yuv420p</property>
  <property name="meta.media.0.codec.sample_aspect_ratio">1</property>
  <property name="meta.media.0.codec.colorspace">709</property>
  <property name="meta.media.0.codec.color_trc">1</property>
  <property name="meta.media.0.codec.name">h264</property>
  <property name="meta.media.0.codec.long_name">H.264 / AVC / MPEG-4 AVC / MPEG-4 part 10</property>
  <property name="meta.media.0.codec.bit_rate">4971382</property>
  <property name="meta.attr.0.stream.creation_time.markup">2018-01-27T20:56:00.000000Z</property>
  <property name="meta.attr.0.stream.handler_name.markup">L-SMASH Video Handler</property>
  <property name="meta.attr.0.stream.encoder.markup">AVC Coding</property>
  <property name="meta.media.1.stream.type">audio</property>
  <property name="meta.media.1.codec.sample_fmt">fltp</property>
  <property name="meta.media.1.codec.sample_rate">48000</property>
  <property name="meta.media.1.codec.channels">2</property>
  <property name="meta.media.1.codec.name">aac</property>
  <property name="meta.media.1.codec.long_name">AAC (Advanced Audio Coding)</property>
  <property name="meta.media.1.codec.bit_rate">255999</property>
  <property name="meta.attr.1.stream.creation_time.markup">2018-01-27T20:56:00.000000Z</property>
  <property name="meta.attr.1.stream.handler_name.markup">L-SMASH Audio Handler</property>
  <property name="meta.attr.major_brand.markup">mp42</property>
  <property name="meta.attr.minor_version.markup">0</property>
  <property name="meta.attr.compatible_brands.markup">mp42mp41isomavc1</property>
  <property name="meta.attr.creation_time.markup">2018-01-27T20:56:00.000000Z</property>
  <property name="meta.media.sample_aspect_num">1</property>
  <property name="meta.media.sample_aspect_den">1</property>
  <property name="meta.media.frame_rate_num">30000</property>
  <property name="meta.media.frame_rate_den">1001</property>
  <property name="meta.media.colorspace">709</property>
  <property name="meta.media.color_trc">1</property>
  <property name="meta.media.width">1920</property>
  <property name="meta.media.height">1080</property>
  <property name="meta.media.top_field_first">0</property>
  <property name="meta.media.progressive">1</property>
 </producer>
 <producer title="Anonymous Submission" id="34_playlist2" in="0" out="1809">
  <property name="length">1810</property>
  <property name="eof">pause</property>
  <property name="resource">/home/stephen/Desktop/New/342960541.mp4</property>
  <property name="audio_index">1</property>
  <property name="video_index">0</property>
  <property name="mute_on_pause">1</property>
  <property name="mlt_service">avformat-novalidate</property>
  <property name="seekable">1</property>
  <property name="aspect_ratio">1</property>
  <property name="kdenlive:folderid">5</property>
  <property name="kdenlive:file_size">40356993</property>
  <property name="kdenlive:file_hash">2d13e8cc6cb1c62128020252d218b7ce</property>
  <property name="global_feed">1</property>
  <property name="xml">was here</property>
  <property name="meta.media.nb_streams">2</property>
  <property name="meta.media.0.stream.type">video</property>
  <property name="meta.media.0.stream.frame_rate">29.97</property>
  <property name="meta.media.0.stream.sample_aspect_ratio">1</property>
  <property name="meta.media.0.codec.width">1920</property>
  <property name="meta.media.0.codec.height">1080</property>
  <property name="meta.media.0.codec.rotate">0</property>
  <property name="meta.media.0.codec.frame_rate">29.97</property>
  <property name="meta.media.0.codec.pix_fmt">yuv420p</property>
  <property name="meta.media.0.codec.sample_aspect_ratio">1</property>
  <property name="meta.media.0.codec.colorspace">709</property>
  <property name="meta.media.0.codec.color_trc">1</property>
  <property name="meta.media.0.codec.name">h264</property>
  <property name="meta.media.0.codec.long_name">H.264 / AVC / MPEG-4 AVC / MPEG-4 part 10</property>
  <property name="meta.media.0.codec.bit_rate">4202274</property>
  <property name="meta.attr.0.stream.creation_time.markup">2015-03-05T14:41:24.000000Z</property>
  <property name="meta.attr.0.stream.handler_name.markup">L-SMASH Video Handler</property>
  <property name="meta.attr.0.stream.encoder.markup">AVC Coding</property>
  <property name="meta.media.1.stream.type">audio</property>
  <property name="meta.media.1.codec.sample_fmt">fltp</property>
  <property name="meta.media.1.codec.sample_rate">48000</property>
  <property name="meta.media.1.codec.channels">2</property>
  <property name="meta.media.1.codec.name">aac</property>
  <property name="meta.media.1.codec.long_name">AAC (Advanced Audio Coding)</property>
  <property name="meta.media.1.codec.bit_rate">256000</property>
  <property name="meta.attr.1.stream.creation_time.markup">2015-03-05T14:41:24.000000Z</property>
  <property name="meta.attr.1.stream.handler_name.markup">L-SMASH Audio Handler</property>
  <property name="meta.attr.major_brand.markup">mp42</property>
  <property name="meta.attr.minor_version.markup">0</property>
  <property name="meta.attr.compatible_brands.markup">mp42mp41isomavc1</property>
  <property name="meta.attr.creation_time.markup">2015-03-05T14:41:24.000000Z</property>
  <property name="meta.media.sample_aspect_num">1</property>
  <property name="meta.media.sample_aspect_den">1</property>
  <property name="meta.media.frame_rate_num">30000</property>
  <property name="meta.media.frame_rate_den">1001</property>
  <property name="meta.media.colorspace">709</property>
  <property name="meta.media.color_trc">1</property>
  <property name="meta.media.width">1920</property>
  <property name="meta.media.height">1080</property>
  <property name="meta.media.top_field_first">0</property>
  <property name="meta.media.progressive">1</property>
 </producer>
 <producer title="Anonymous Submission" id="18_playlist2" in="0" out="751">
  <property name="length">752</property>
  <property name="eof">pause</property>
  <property name="resource">/home/stephen/Desktop/Stock video/coffee2.mp4</property>
  <property name="audio_index">1</property>
  <property name="video_index">0</property>
  <property name="mute_on_pause">1</property>
  <property name="mlt_service">avformat-novalidate</property>
  <property name="seekable">1</property>
  <property name="aspect_ratio">1</property>
  <property name="kdenlive:folderid">5</property>
  <property name="kdenlive:file_size">16701159</property>
  <property name="kdenlive:file_hash">d3851acaee301291adb4f8ccd7bbb00a</property>
  <property name="global_feed">1</property>
  <property name="xml">was here</property>
  <property name="meta.media.nb_streams">2</property>
  <property name="meta.media.0.stream.type">video</property>
  <property name="meta.media.0.stream.frame_rate">29.97</property>
  <property name="meta.media.0.stream.sample_aspect_ratio">1</property>
  <property name="meta.media.0.codec.width">1920</property>
  <property name="meta.media.0.codec.height">1080</property>
  <property name="meta.media.0.codec.rotate">0</property>
  <property name="meta.media.0.codec.frame_rate">29.97</property>
  <property name="meta.media.0.codec.pix_fmt">yuv420p</property>
  <property name="meta.media.0.codec.sample_aspect_ratio">1</property>
  <property name="meta.media.0.codec.colorspace">709</property>
  <property name="meta.media.0.codec.color_trc">1</property>
  <property name="meta.media.0.codec.name">h264</property>
  <property name="meta.media.0.codec.long_name">H.264 / AVC / MPEG-4 AVC / MPEG-4 part 10</property>
  <property name="meta.media.0.codec.bit_rate">4203829</property>
  <property name="meta.attr.0.stream.creation_time.markup">2015-03-07T12:07:32.000000Z</property>
  <property name="meta.attr.0.stream.handler_name.markup">L-SMASH Video Handler</property>
  <property name="meta.attr.0.stream.encoder.markup">AVC Coding</property>
  <property name="meta.media.1.stream.type">audio</property>
  <property name="meta.media.1.codec.sample_fmt">fltp</property>
  <property name="meta.media.1.codec.sample_rate">48000</property>
  <property name="meta.media.1.codec.channels">2</property>
  <property name="meta.media.1.codec.name">aac</property>
  <property name="meta.media.1.codec.long_name">AAC (Advanced Audio Coding)</property>
  <property name="meta.media.1.codec.bit_rate">235199</property>
  <property name="meta.attr.1.stream.creation_time.markup">2015-03-07T12:07:32.000000Z</property>
  <property name="meta.attr.1.stream.handler_name.markup">L-SMASH Audio Handler</property>
  <property name="meta.attr.major_brand.markup">mp42</property>
  <property name="meta.attr.minor_version.markup">0</property>
  <property name="meta.attr.compatible_brands.markup">mp42mp41isomavc1</property>
  <property name="meta.attr.creation_time.markup">2015-03-07T12:07:32.000000Z</property>
  <property name="meta.media.sample_aspect_num">1</property>
  <property name="meta.media.sample_aspect_den">1</property>
  <property name="meta.media.frame_rate_num">30000</property>
  <property name="meta.media.frame_rate_den">1001</property>
  <property name="meta.media.colorspace">709</property>
  <property name="meta.media.color_trc">1</property>
  <property name="meta.media.width">1920</property>
  <property name="meta.media.height">1080</property>
  <property name="meta.media.top_field_first">0</property>
  <property name="meta.media.progressive">1</property>
 </producer>
 <producer title="Anonymous Submission" id="17_playlist2" in="0" out="375">
  <property name="length">376</property>
  <property name="eof">pause</property>
  <property name="resource">/home/stephen/Desktop/Stock video/coffee.mp4</property>
  <property name="audio_index">1</property>
  <property name="video_index">0</property>
  <property name="mute_on_pause">1</property>
  <property name="mlt_service">avformat-novalidate</property>
  <property name="seekable">1</property>
  <property name="aspect_ratio">1</property>
  <property name="kdenlive:folderid">5</property>
  <property name="kdenlive:file_size">7997426</property>
  <property name="kdenlive:file_hash">ecd1b1dbe6dbb69688e1d12d9bac4ac8</property>
  <property name="global_feed">1</property>
  <property name="xml">was here</property>
  <property name="meta.media.nb_streams">2</property>
  <property name="meta.media.0.stream.type">video</property>
  <property name="meta.media.0.stream.frame_rate">29.97</property>
  <property name="meta.media.0.stream.sample_aspect_ratio">1</property>
  <property name="meta.media.0.codec.width">1920</property>
  <property name="meta.media.0.codec.height">1080</property>
  <property name="meta.media.0.codec.rotate">0</property>
  <property name="meta.media.0.codec.frame_rate">29.97</property>
  <property name="meta.media.0.codec.pix_fmt">yuv420p</property>
  <property name="meta.media.0.codec.sample_aspect_ratio">1</property>
  <property name="meta.media.0.codec.colorspace">709</property>
  <property name="meta.media.0.codec.name">h264</property>
  <property name="meta.media.0.codec.long_name">H.264 / AVC / MPEG-4 AVC / MPEG-4 part 10</property>
  <property name="meta.media.0.codec.bit_rate">3990069</property>
  <property name="meta.attr.0.stream.creation_time.markup">2015-03-04T10:28:36.000000Z</property>
  <property name="meta.attr.0.stream.handler_name.markup">L-SMASH Video Handler</property>
  <property name="meta.attr.0.stream.encoder.markup">AVC Coding</property>
  <property name="meta.media.1.stream.type">audio</property>
  <property name="meta.media.1.codec.sample_fmt">fltp</property>
  <property name="meta.media.1.codec.sample_rate">48000</property>
  <property name="meta.media.1.codec.channels">2</property>
  <property name="meta.media.1.codec.name">aac</property>
  <property name="meta.media.1.codec.long_name">AAC (Advanced Audio Coding)</property>
  <property name="meta.media.1.codec.bit_rate">256000</property>
  <property name="meta.attr.1.stream.creation_time.markup">2015-03-04T10:28:36.000000Z</property>
  <property name="meta.attr.1.stream.handler_name.markup">L-SMASH Audio Handler</property>
  <property name="meta.attr.major_brand.markup">mp42</property>
  <property name="meta.attr.minor_version.markup">0</property>
  <property name="meta.attr.compatible_brands.markup">mp42mp41isomavc1</property>
  <property name="meta.attr.creation_time.markup">2015-03-04T10:28:36.000000Z</property>
  <property name="meta.media.sample_aspect_num">1</property>
  <property name="meta.media.sample_aspect_den">1</property>
  <property name="meta.media.frame_rate_num">30000</property>
  <property name="meta.media.frame_rate_den">1001</property>
  <property name="meta.media.colorspace">709</property>
  <property name="meta.media.color_trc">2</property>
  <property name="meta.media.width">1920</property>
  <property name="meta.media.height">1080</property>
  <property name="meta.media.top_field_first">0</property>
  <property name="meta.media.progressive">1</property>
 </producer>
 <producer title="Anonymous Submission" id="36_playlist2" in="0" out="312">
  <property name="length">313</property>
  <property name="eof">pause</property>
  <property name="resource">/home/stephen/Desktop/New/563397762.mp4</property>
  <property name="audio_index">-1</property>
  <property name="video_index">0</property>
  <property name="mute_on_pause">1</property>
  <property name="mlt_service">avformat-novalidate</property>
  <property name="seekable">1</property>
  <property name="aspect_ratio">1</property>
  <property name="kdenlive:folderid">5</property>
  <property name="kdenlive:file_size">2168783</property>
  <property name="kdenlive:file_hash">e88602a58eaa5650f5e15d120e8aecb6</property>
  <property name="global_feed">1</property>
  <property name="xml">was here</property>
  <property name="meta.media.nb_streams">1</property>
  <property name="meta.media.0.stream.type">video</property>
  <property name="meta.media.0.stream.frame_rate">25</property>
  <property name="meta.media.0.stream.sample_aspect_ratio">1</property>
  <property name="meta.media.0.codec.width">1920</property>
  <property name="meta.media.0.codec.height">1080</property>
  <property name="meta.media.0.codec.rotate">0</property>
  <property name="meta.media.0.codec.frame_rate">25</property>
  <property name="meta.media.0.codec.pix_fmt">yuv420p</property>
  <property name="meta.media.0.codec.sample_aspect_ratio">1</property>
  <property name="meta.media.0.codec.colorspace">709</property>
  <property name="meta.media.0.codec.color_trc">1</property>
  <property name="meta.media.0.codec.name">h264</property>
  <property name="meta.media.0.codec.long_name">H.264 / AVC / MPEG-4 AVC / MPEG-4 part 10</property>
  <property name="meta.media.0.codec.bit_rate">1382742</property>
  <property name="meta.attr.0.stream.creation_time.markup">2016-07-09T09:35:26.000000Z</property>
  <property name="meta.attr.0.stream.handler_name.markup">L-SMASH Video Handler</property>
  <property name="meta.attr.0.stream.encoder.markup">AVC Coding</property>
  <property name="meta.attr.major_brand.markup">mp42</property>
  <property name="meta.attr.minor_version.markup">0</property>
  <property name="meta.attr.compatible_brands.markup">mp42mp41isomavc1</property>
  <property name="meta.attr.creation_time.markup">2016-07-09T09:35:26.000000Z</property>
  <property name="meta.media.sample_aspect_num">1</property>
  <property name="meta.media.sample_aspect_den">1</property>
  <property name="meta.media.frame_rate_num">25</property>
  <property name="meta.media.frame_rate_den">1</property>
  <property name="meta.media.colorspace">709</property>
  <property name="meta.media.color_trc">1</property>
  <property name="meta.media.width">1920</property>
  <property name="meta.media.height">1080</property>
  <property name="meta.media.top_field_first">0</property>
  <property name="meta.media.progressive">1</property>
 </producer>
 <producer title="Anonymous Submission" id="38_playlist5" in="0" out="499">
  <property name="length">500</property>
  <property name="eof">pause</property>
  <property name="resource">/home/stephen/Desktop/New/724382768.mp4</property>
  <property name="audio_index">-1</property>
  <property name="video_index">0</property>
  <property name="mute_on_pause">1</property>
  <property name="mlt_service">avformat-novalidate</property>
  <property name="seekable">1</property>
  <property name="aspect_ratio">1</property>
  <property name="kdenlive:folderid">5</property>
  <property name="kdenlive:file_size">4774512</property>
  <property name="kdenlive:file_hash">d2494e57681aa60810c7eb1f1f568926</property>
  <property name="global_feed">1</property>
  <property name="xml">was here</property>
  <property name="meta.media.nb_streams">1</property>
  <property name="meta.media.0.stream.type">video</property>
  <property name="meta.media.0.stream.frame_rate">29.97</property>
  <property name="meta.media.0.stream.sample_aspect_ratio">1</property>
  <property name="meta.media.0.codec.width">1920</property>
  <property name="meta.media.0.codec.height">1080</property>
  <property name="meta.media.0.codec.rotate">0</property>
  <property name="meta.media.0.codec.frame_rate">29.97</property>
  <property name="meta.media.0.codec.pix_fmt">yuv420p</property>
  <property name="meta.media.0.codec.sample_aspect_ratio">1</property>
  <property name="meta.media.0.codec.colorspace">709</property>
  <property name="meta.media.0.codec.color_trc">1</property>
  <property name="meta.media.0.codec.name">h264</property>
  <property name="meta.media.0.codec.long_name">H.264 / AVC / MPEG-4 AVC / MPEG-4 part 10</property>
  <property name="meta.media.0.codec.bit_rate">1907553</property>
  <property name="meta.attr.0.stream.creation_time.markup">2017-04-01T17:00:41.000000Z</property>
  <property name="meta.attr.0.stream.handler_name.markup">L-SMASH Video Handler</property>
  <property name="meta.attr.0.stream.encoder.markup">AVC Coding</property>
  <property name="meta.attr.major_brand.markup">mp42</property>
  <property name="meta.attr.minor_version.markup">0</property>
  <property name="meta.attr.compatible_brands.markup">mp42mp41isomavc1</property>
  <property name="meta.attr.creation_time.markup">2017-04-01T17:00:41.000000Z</property>
  <property name="meta.media.sample_aspect_num">1</property>
  <property name="meta.media.sample_aspect_den">1</property>
  <property name="meta.media.frame_rate_num">30000</property>
  <property name="meta.media.frame_rate_den">1001</property>
  <property name="meta.media.colorspace">709</property>
  <property name="meta.media.color_trc">1</property>
  <property name="meta.media.width">1920</property>
  <property name="meta.media.height">1080</property>
  <property name="meta.media.top_field_first">0</property>
  <property name="meta.media.progressive">1</property>
 </producer>
 <producer title="Anonymous Submission" id="22_playlist2" in="0" out="283">
  <property name="length">284</property>
  <property name="eof">pause</property>
  <property name="resource">/home/stephen/Desktop/Stock video/DublinQuays.mp4</property>
  <property name="audio_index">1</property>
  <property name="video_index">0</property>
  <property name="mute_on_pause">1</property>
  <property name="mlt_service">avformat-novalidate</property>
  <property name="seekable">1</property>
  <property name="aspect_ratio">1</property>
  <property name="kdenlive:folderid">5</property>
  <property name="kdenlive:file_size">6769398</property>
  <property name="kdenlive:file_hash">48e21edda9ec62e12e04ee70ee52d36b</property>
  <property name="global_feed">1</property>
  <property name="xml">was here</property>
  <property name="meta.media.nb_streams">2</property>
  <property name="meta.media.0.stream.type">video</property>
  <property name="meta.media.0.stream.frame_rate">25</property>
  <property name="meta.media.0.stream.sample_aspect_ratio">1</property>
  <property name="meta.media.0.codec.width">1920</property>
  <property name="meta.media.0.codec.height">1080</property>
  <property name="meta.media.0.codec.rotate">0</property>
  <property name="meta.media.0.codec.frame_rate">25</property>
  <property name="meta.media.0.codec.pix_fmt">yuv420p</property>
  <property name="meta.media.0.codec.sample_aspect_ratio">1</property>
  <property name="meta.media.0.codec.colorspace">709</property>
  <property name="meta.media.0.codec.color_trc">1</property>
  <property name="meta.media.0.codec.name">h264</property>
  <property name="meta.media.0.codec.long_name">H.264 / AVC / MPEG-4 AVC / MPEG-4 part 10</property>
  <property name="meta.media.0.codec.bit_rate">4505828</property>
  <property name="meta.attr.0.stream.creation_time.markup">2017-03-12T04:38:40.000000Z</property>
  <property name="meta.attr.0.stream.handler_name.markup">L-SMASH Video Handler</property>
  <property name="meta.attr.0.stream.encoder.markup">AVC Coding</property>
  <property name="meta.media.1.stream.type">audio</property>
  <property name="meta.media.1.codec.sample_fmt">fltp</property>
  <property name="meta.media.1.codec.sample_rate">48000</property>
  <property name="meta.media.1.codec.channels">2</property>
  <property name="meta.media.1.codec.name">aac</property>
  <property name="meta.media.1.codec.long_name">AAC (Advanced Audio Coding)</property>
  <property name="meta.media.1.codec.bit_rate">255999</property>
  <property name="meta.attr.1.stream.creation_time.markup">2017-03-12T04:38:40.000000Z</property>
  <property name="meta.attr.1.stream.handler_name.markup">L-SMASH Audio Handler</property>
  <property name="meta.attr.major_brand.markup">mp42</property>
  <property name="meta.attr.minor_version.markup">0</property>
  <property name="meta.attr.compatible_brands.markup">mp42mp41isomavc1</property>
  <property name="meta.attr.creation_time.markup">2017-03-12T04:38:40.000000Z</property>
  <property name="meta.media.sample_aspect_num">1</property>
  <property name="meta.media.sample_aspect_den">1</property>
  <property name="meta.media.frame_rate_num">25</property>
  <property name="meta.media.frame_rate_den">1</property>
  <property name="meta.media.colorspace">709</property>
  <property name="meta.media.color_trc">1</property>
  <property name="meta.media.width">1920</property>
  <property name="meta.media.height">1080</property>
  <property name="meta.media.top_field_first">0</property>
  <property name="meta.media.progressive">1</property>
 </producer>
 <producer title="Anonymous Submission" id="23_playlist2" in="0" out="408">
  <property name="length">409</property>
  <property name="eof">pause</property>
  <property name="resource">/home/stephen/Desktop/Stock video/hapennybridge.mp4</property>
  <property name="audio_index">1</property>
  <property name="video_index">0</property>
  <property name="mute_on_pause">1</property>
  <property name="mlt_service">avformat-novalidate</property>
  <property name="seekable">1</property>
  <property name="aspect_ratio">1</property>
  <property name="kdenlive:folderid">5</property>
  <property name="kdenlive:file_size">9763982</property>
  <property name="kdenlive:file_hash">b38f857f6fdb6e95d8eb8ca53b9573ed</property>
  <property name="global_feed">1</property>
  <property name="xml">was here</property>
  <property name="meta.media.nb_streams">2</property>
  <property name="meta.media.0.stream.type">video</property>
  <property name="meta.media.0.stream.frame_rate">25</property>
  <property name="meta.media.0.stream.sample_aspect_ratio">1</property>
  <property name="meta.media.0.codec.width">1920</property>
  <property name="meta.media.0.codec.height">1080</property>
  <property name="meta.media.0.codec.rotate">0</property>
  <property name="meta.media.0.codec.frame_rate">25</property>
  <property name="meta.media.0.codec.pix_fmt">yuv420p</property>
  <property name="meta.media.0.codec.sample_aspect_ratio">1</property>
  <property name="meta.media.0.codec.colorspace">709</property>
  <property name="meta.media.0.codec.color_trc">1</property>
  <property name="meta.media.0.codec.name">h264</property>
  <property name="meta.media.0.codec.long_name">H.264 / AVC / MPEG-4 AVC / MPEG-4 part 10</property>
  <property name="meta.media.0.codec.bit_rate">4513705</property>
  <property name="meta.attr.0.stream.creation_time.markup">2017-03-12T05:12:44.000000Z</property>
  <property name="meta.attr.0.stream.handler_name.markup">L-SMASH Video Handler</property>
  <property name="meta.attr.0.stream.encoder.markup">AVC Coding</property>
  <property name="meta.media.1.stream.type">audio</property>
  <property name="meta.media.1.codec.sample_fmt">fltp</property>
  <property name="meta.media.1.codec.sample_rate">48000</property>
  <property name="meta.media.1.codec.channels">2</property>
  <property name="meta.media.1.codec.name">aac</property>
  <property name="meta.media.1.codec.long_name">AAC (Advanced Audio Coding)</property>
  <property name="meta.media.1.codec.bit_rate">255999</property>
  <property name="meta.attr.1.stream.creation_time.markup">2017-03-12T05:12:44.000000Z</property>
  <property name="meta.attr.1.stream.handler_name.markup">L-SMASH Audio Handler</property>
  <property name="meta.attr.major_brand.markup">mp42</property>
  <property name="meta.attr.minor_version.markup">0</property>
  <property name="meta.attr.compatible_brands.markup">mp42mp41isomavc1</property>
  <property name="meta.attr.creation_time.markup">2017-03-12T05:12:44.000000Z</property>
  <property name="meta.media.sample_aspect_num">1</property>
  <property name="meta.media.sample_aspect_den">1</property>
  <property name="meta.media.frame_rate_num">25</property>
  <property name="meta.media.frame_rate_den">1</property>
  <property name="meta.media.colorspace">709</property>
  <property name="meta.media.color_trc">1</property>
  <property name="meta.media.width">1920</property>
  <property name="meta.media.height">1080</property>
  <property name="meta.media.top_field_first">0</property>
  <property name="meta.media.progressive">1</property>
 </producer>
 <producer title="Anonymous Submission" id="42_playlist5" in="0" out="375">
  <property name="length">376</property>
  <property name="eof">pause</property>
  <property name="resource">/home/stephen/Desktop/New/Shimmering_Particles.mov</property>
  <property name="audio_index">-1</property>
  <property name="video_index">0</property>
  <property name="mute_on_pause">1</property>
  <property name="mlt_service">avformat-novalidate</property>
  <property name="seekable">1</property>
  <property name="aspect_ratio">1</property>
  <property name="kdenlive:folderid">5</property>
  <property name="kdenlive:file_size">67955819</property>
  <property name="kdenlive:file_hash">9a98cac661a26fefc820519e3ecf64e0</property>
  <property name="global_feed">1</property>
  <property name="xml">was here</property>
  <property name="meta.media.nb_streams">1</property>
  <property name="meta.media.0.stream.type">video</property>
  <property name="meta.media.0.stream.frame_rate">29.97</property>
  <property name="meta.media.0.stream.sample_aspect_ratio">1</property>
  <property name="meta.media.0.codec.width">1920</property>
  <property name="meta.media.0.codec.height">1080</property>
  <property name="meta.media.0.codec.rotate">0</property>
  <property name="meta.media.0.codec.frame_rate">2997</property>
  <property name="meta.media.0.codec.pix_fmt">yuvj422p</property>
  <property name="meta.media.0.codec.sample_aspect_ratio">1</property>
  <property name="meta.media.0.codec.colorspace">601</property>
  <property name="meta.media.0.codec.name">mjpeg</property>
  <property name="meta.media.0.codec.long_name">MJPEG (Motion JPEG)</property>
  <property name="meta.media.0.codec.bit_rate">36068820</property>
  <property name="meta.attr.0.stream.creation_time.markup">2012-04-30T03:22:17.000000Z</property>
  <property name="meta.attr.0.stream.language.markup">eng</property>
  <property name="meta.attr.0.stream.handler_name.markup">Apple Alias Data Handler</property>
  <property name="meta.attr.0.stream.encoder.markup">Photo - JPEG</property>
  <property name="meta.attr.major_brand.markup">qt  </property>
  <property name="meta.attr.minor_version.markup">537199360</property>
  <property name="meta.attr.compatible_brands.markup">qt  </property>
  <property name="meta.attr.creation_time.markup">2012-04-30T03:22:17.000000Z</property>
  <property name="meta.media.sample_aspect_num">1</property>
  <property name="meta.media.sample_aspect_den">1</property>
  <property name="meta.media.frame_rate_num">2997</property>
  <property name="meta.media.frame_rate_den">100</property>
  <property name="meta.media.colorspace">601</property>
  <property name="meta.media.color_trc">2</property>
  <property name="meta.media.width">1920</property>
  <property name="meta.media.height">1080</property>
  <property name="meta.media.top_field_first">0</property>
  <property name="meta.media.progressive">1</property>
 </producer>
 <producer title="Anonymous Submission" id="45_playlist5" in="0" out="1975">
  <property name="length">1976</property>
  <property name="eof">pause</property>
  <property name="resource">/home/stephen/Desktop/New/Water_Close_Up_H264_Videvo.mp4</property>
  <property name="audio_index">-1</property>
  <property name="video_index">0</property>
  <property name="mute_on_pause">1</property>
  <property name="mlt_service">avformat-novalidate</property>
  <property name="seekable">1</property>
  <property name="aspect_ratio">1</property>
  <property name="kdenlive:folderid">5</property>
  <property name="kdenlive:file_size">71155237</property>
  <property name="kdenlive:file_hash">7c447da7eb4a48a2f520cd81e61f9bcf</property>
  <property name="global_feed">1</property>
  <property name="xml">was here</property>
  <property name="meta.media.nb_streams">1</property>
  <property name="meta.media.0.stream.type">video</property>
  <property name="meta.media.0.stream.frame_rate">23.976</property>
  <property name="meta.media.0.stream.sample_aspect_ratio">0</property>
  <property name="meta.media.0.codec.width">1920</property>
  <property name="meta.media.0.codec.height">1080</property>
  <property name="meta.media.0.codec.rotate">0</property>
  <property name="meta.media.0.codec.frame_rate">23.976</property>
  <property name="meta.media.0.codec.pix_fmt">yuv420p</property>
  <property name="meta.media.0.codec.sample_aspect_ratio">1</property>
  <property name="meta.media.0.codec.colorspace">709</property>
  <property name="meta.media.0.codec.name">h264</property>
  <property name="meta.media.0.codec.long_name">H.264 / AVC / MPEG-4 AVC / MPEG-4 part 10</property>
  <property name="meta.media.0.codec.bit_rate">7199440</property>
  <property name="meta.attr.0.stream.creation_time.markup">2014-12-01T20:51:14.000000Z</property>
  <property name="meta.attr.0.stream.language.markup">eng</property>
  <property name="meta.attr.0.stream.handler_name.markup">Mainconcept MP4 Video Media Handler</property>
  <property name="meta.attr.0.stream.encoder.markup">AVC Coding</property>
  <property name="meta.attr.major_brand.markup">mp42</property>
  <property name="meta.attr.minor_version.markup">0</property>
  <property name="meta.attr.compatible_brands.markup">mp42mp41</property>
  <property name="meta.attr.creation_time.markup">2014-12-01T20:51:14.000000Z</property>
  <property name="meta.media.sample_aspect_num">1</property>
  <property name="meta.media.sample_aspect_den">1</property>
  <property name="meta.media.frame_rate_num">2997</property>
  <property name="meta.media.frame_rate_den">125</property>
  <property name="meta.media.colorspace">709</property>
  <property name="meta.media.color_trc">2</property>
  <property name="meta.media.width">1920</property>
  <property name="meta.media.height">1080</property>
  <property name="meta.media.top_field_first">0</property>
  <property name="meta.media.progressive">1</property>
 </producer>
 <producer title="Anonymous Submission" id="25_playlist2" in="0" out="499">
  <property name="length">500</property>
  <property name="eof">pause</property>
  <property name="resource">/home/stephen/Desktop/Stock video/morewalking.mp4</property>
  <property name="audio_index">1</property>
  <property name="video_index">0</property>
  <property name="mute_on_pause">1</property>
  <property name="mlt_service">avformat-novalidate</property>
  <property name="seekable">1</property>
  <property name="aspect_ratio">1</property>
  <property name="kdenlive:folderid">5</property>
  <property name="kdenlive:file_size">5357236</property>
  <property name="kdenlive:file_hash">622f61191b911e3460986d7057af03cf</property>
  <property name="global_feed">1</property>
  <property name="xml">was here</property>
  <property name="meta.media.nb_streams">2</property>
  <property name="meta.media.0.stream.type">video</property>
  <property name="meta.media.0.stream.frame_rate">29.97</property>
  <property name="meta.media.0.stream.sample_aspect_ratio">1</property>
  <property name="meta.media.0.codec.width">1920</property>
  <property name="meta.media.0.codec.height">1080</property>
  <property name="meta.media.0.codec.rotate">0</property>
  <property name="meta.media.0.codec.frame_rate">29.97</property>
  <property name="meta.media.0.codec.pix_fmt">yuv420p</property>
  <property name="meta.media.0.codec.sample_aspect_ratio">1</property>
  <property name="meta.media.0.codec.colorspace">709</property>
  <property name="meta.media.0.codec.color_trc">1</property>
  <property name="meta.media.0.codec.name">h264</property>
  <property name="meta.media.0.codec.long_name">H.264 / AVC / MPEG-4 AVC / MPEG-4 part 10</property>
  <property name="meta.media.0.codec.bit_rate">1882995</property>
  <property name="meta.attr.0.stream.creation_time.markup">2017-04-02T14:05:53.000000Z</property>
  <property name="meta.attr.0.stream.handler_name.markup">L-SMASH Video Handler</property>
  <property name="meta.attr.0.stream.encoder.markup">AVC Coding</property>
  <property name="meta.media.1.stream.type">audio</property>
  <property name="meta.media.1.codec.sample_fmt">fltp</property>
  <property name="meta.media.1.codec.sample_rate">48000</property>
  <property name="meta.media.1.codec.channels">2</property>
  <property name="meta.media.1.codec.name">aac</property>
  <property name="meta.media.1.codec.long_name">AAC (Advanced Audio Coding)</property>
  <property name="meta.media.1.codec.bit_rate">256000</property>
  <property name="meta.attr.1.stream.creation_time.markup">2017-04-02T14:05:53.000000Z</property>
  <property name="meta.attr.1.stream.handler_name.markup">L-SMASH Audio Handler</property>
  <property name="meta.attr.major_brand.markup">mp42</property>
  <property name="meta.attr.minor_version.markup">0</property>
  <property name="meta.attr.compatible_brands.markup">mp42mp41isomavc1</property>
  <property name="meta.attr.creation_time.markup">2017-04-02T14:05:53.000000Z</property>
  <property name="meta.media.sample_aspect_num">1</property>
  <property name="meta.media.sample_aspect_den">1</property>
  <property name="meta.media.frame_rate_num">30000</property>
  <property name="meta.media.frame_rate_den">1001</property>
  <property name="meta.media.colorspace">709</property>
  <property name="meta.media.color_trc">1</property>
  <property name="meta.media.width">1920</property>
  <property name="meta.media.height">1080</property>
  <property name="meta.media.top_field_first">0</property>
  <property name="meta.media.progressive">1</property>
 </producer>
 <playlist id="playlist2">
  <property name="kdenlive:track_name">Video 1</property>
  <entry producer="39_playlist2" in="0" out="125"/>
  <entry producer="43_playlist2" in="13" out="72"/>
  <entry producer="15_playlist2" in="473" out="607"/>
  <entry producer="20_playlist2" in="98" out="209"/>
  <entry producer="37_playlist2" in="79" out="172"/>
  <entry producer="31_playlist2" in="0" out="121"/>
  <entry producer="34_playlist2" in="81" out="208"/>
  <entry producer="18_playlist2" in="0" out="134"/>
  <entry producer="17_playlist2" in="0" out="80"/>
  <entry producer="36_playlist2" in="82" out="172"/>
  <entry producer="38_playlist5" in="193" out="302"/>
  <entry producer="22_playlist2" in="0" out="108"/>
  <entry producer="23_playlist2" in="0" out="107"/>
  <entry producer="42_playlist5" in="0" out="375"/>
  <entry producer="45_playlist5" in="532" out="825"/>
  <entry producer="25_playlist2" in="0" out="184"/>
 </playlist>
 <playlist id="playlist3">
  <property name="kdenlive:track_name">Video 2</property>
  <blank length="151"/>
  <entry producer="3" in="26" out="203"/>
  <entry producer="4" in="0" out="199"/>
  <entry producer="5" in="0" out="226"/>
  <entry producer="6" in="0" out="217"/>
  <entry producer="7" in="0" out="230"/>
  <entry producer="8" in="0" out="222"/>
  <entry producer="9" in="0" out="652"/>
  <entry producer="10" in="0" out="188"/>
  <entry producer="11" in="0" out="184"/>
 </playlist>
 <playlist id="playlist4">
  <property name="kdenlive:track_name">Video 3</property>
  <entry producer="46" in="0" out="137"/>
  <entry producer="2" in="0" out="1289"/>
 </playlist>
 <playlist id="playlist5">
  <property name="kdenlive:track_name">Video 4</property>
 </playlist>
 <playlist id="playlist6">
  <property name="kdenlive:track_name">Video 5</property>
 </playlist>
 <tractor title="Anonymous Submission" id="maintractor" global_feed="1" in="0" out="2514">
  <track producer="black_track"/>
  <track hide="video" producer="playlist1"/>
  <track producer="playlist2"/>
  <track producer="playlist3"/>
  <track producer="playlist4"/>
  <track producer="playlist5"/>
  <track producer="playlist6"/>
  <transition id="transition0">
   <property name="a_track">0</property>
   <property name="b_track">1</property>
   <property name="mlt_service">mix</property>
   <property name="always_active">1</property>
   <property name="sum">1</property>
   <property name="internal_added">237</property>
  </transition>
  <transition id="transition1">
   <property name="a_track">0</property>
   <property name="b_track">2</property>
   <property name="mlt_service">mix</property>
   <property name="always_active">1</property>
   <property name="sum">1</property>
   <property name="internal_added">237</property>
  </transition>
  <transition id="transition2">
   <property name="a_track">0</property>
   <property name="b_track">3</property>
   <property name="mlt_service">mix</property>
   <property name="always_active">1</property>
   <property name="sum">1</property>
   <property name="internal_added">237</property>
  </transition>
  <transition id="transition3">
   <property name="a_track">0</property>
   <property name="b_track">4</property>
   <property name="mlt_service">mix</property>
   <property name="always_active">1</property>
   <property name="sum">1</property>
   <property name="internal_added">237</property>
  </transition>
  <transition id="transition4">
   <property name="a_track">0</property>
   <property name="b_track">5</property>
   <property name="mlt_service">mix</property>
   <property name="always_active">1</property>
   <property name="sum">1</property>
   <property name="internal_added">237</property>
  </transition>
  <transition id="transition5">
   <property name="a_track">0</property>
   <property name="b_track">6</property>
   <property name="mlt_service">mix</property>
   <property name="always_active">1</property>
   <property name="sum">1</property>
   <property name="internal_added">237</property>
  </transition>
  <transition id="transition6">
   <property name="a_track">0</property>
   <property name="b_track">2</property>
   <property name="compositing">0</property>
   <property name="distort">0</property>
   <property name="rotate_center">0</property>
   <property name="mlt_service">qtblend</property>
   <property name="internal_added">237</property>
  </transition>
  <transition id="transition7">
   <property name="a_track">0</property>
   <property name="b_track">3</property>
   <property name="compositing">0</property>
   <property name="distort">0</property>
   <property name="rotate_center">0</property>
   <property name="mlt_service">qtblend</property>
   <property name="internal_added">237</property>
  </transition>
  <transition id="transition8">
   <property name="a_track">0</property>
   <property name="b_track">4</property>
   <property name="compositing">0</property>
   <property name="distort">0</property>
   <property name="rotate_center">0</property>
   <property name="mlt_service">qtblend</property>
   <property name="internal_added">237</property>
  </transition>
  <transition id="transition9">
   <property name="a_track">0</property>
   <property name="b_track">5</property>
   <property name="compositing">0</property>
   <property name="distort">0</property>
   <property name="rotate_center">0</property>
   <property name="mlt_service">qtblend</property>
   <property name="internal_added">237</property>
  </transition>
  <transition id="transition10">
   <property name="a_track">0</property>
   <property name="b_track">6</property>
   <property name="compositing">0</property>
   <property name="distort">0</property>
   <property name="rotate_center">0</property>
   <property name="mlt_service">qtblend</property>
   <property name="internal_added">237</property>
  </transition>
 </tractor>
</mlt>
